<svg width="32" height="32" viewBox="0 0 32 32" fill="none" xmlns="http://www.w3.org/2000/svg">
<path fill-rule="evenodd" clip-rule="evenodd" d="M11.7577 14.5858L11.0506 13.8787C10.6603 13.4884 10.0267 13.4884 9.63641 13.8787L7.51509 16C5.41357 18.1015 5.1986 21.3797 6.86879 23.7216C6.84758 23.74 6.82778 23.7584 6.80798 23.7782L6.10088 24.4853C5.71055 24.8756 5.71055 25.5092 6.10088 25.8995C6.4912 26.2898 7.12477 26.2898 7.51509 25.8995L8.2222 25.1924C8.242 25.1726 8.26039 25.1528 8.27877 25.1316C10.6207 26.8018 13.8989 26.5868 16.0004 24.4853L18.1217 22.364C18.512 21.9737 18.512 21.3401 18.1217 20.9498L17.4146 20.2427L18.8288 18.8284C19.2191 18.4381 19.2191 17.8046 18.8288 17.4142C18.4385 17.0239 17.8049 17.0239 17.4146 17.4142L16.0004 18.8284L13.1719 16L14.5862 14.5858C14.9765 14.1955 14.9765 13.5619 14.5862 13.1716C14.1958 12.7813 13.5623 12.7813 13.1719 13.1716L11.7577 14.5858ZM23.7785 6.80763C23.7587 6.82743 23.7199 6.86632 23.7199 6.86632C21.3772 5.19825 18.1012 5.41392 16.0004 7.51473L13.8791 9.63605C13.4887 10.0264 13.4887 10.6599 13.8791 11.0503L20.9501 18.1213C21.3404 18.5117 21.974 18.5117 22.3643 18.1213L24.4857 16C26.5865 13.8992 26.8021 10.6232 25.1341 8.28053C25.1341 8.28053 25.173 8.24164 25.1928 8.22184L25.8999 7.51473C26.2902 7.12441 26.2902 6.49084 25.8999 6.10052C25.5095 5.7102 24.876 5.7102 24.4857 6.10052L23.7785 6.80763Z" fill="white"/>
</svg>
