<svg width="32" height="32" viewBox="0 0 32 32" fill="none" xmlns="http://www.w3.org/2000/svg">
<path d="M2 18.7637C2 18.1993 2.43559 17.7423 2.97357 17.7423C3.51027 17.7423 3.94586 18.1993 3.94586 18.7637C3.94586 19.4215 4.45712 19.9579 5.08539 19.9579H6.63699C7.5387 19.9579 8.27253 19.1866 8.27253 18.2393C8.27253 17.2933 7.5387 16.5227 6.63699 16.5227C5.81286 16.5227 4.60529 16.46 3.65016 15.9176C2.89789 15.49 2 14.596 2 12.762C2 10.6892 3.60883 9.004 5.58585 9.004H7.13427C8.83594 9.004 10.2197 10.4544 10.2197 12.237C10.2197 12.8001 9.78407 13.2571 9.24609 13.2571C8.70939 13.2571 8.2738 12.8001 8.2738 12.237C8.2738 11.5792 7.76254 11.0455 7.13427 11.0455H5.58585C4.68159 11.0455 3.94649 11.8154 3.94649 12.762C3.94649 13.702 4.14998 14.4806 6.63763 14.4806C8.61337 14.4806 10.2197 16.1665 10.2197 18.2386C10.2197 20.3115 8.61274 21.9993 6.63763 21.9993H5.08603C3.38372 22 2 20.5476 2 18.7637ZM12.149 9.05271C12.6577 8.87525 13.209 9.16478 13.3782 9.69984L15.9218 17.7383L18.4654 9.69984C18.6358 9.16478 19.1859 8.87525 19.6959 9.05271C20.2058 9.23017 20.4818 9.80858 20.3127 10.3436L16.8457 21.3002C16.7128 21.7178 16.3421 22 15.9218 22C15.5034 22 15.1307 21.7178 14.9991 21.3002L11.5315 10.3436C11.3624 9.80858 11.6377 9.23017 12.149 9.05271ZM24.4721 19.9579H27.3108C27.7139 19.9579 28.0535 19.6003 28.0535 19.1766V17.0258H25.8908C25.3528 17.0258 24.9172 16.5688 24.9172 16.0057C24.9172 15.4413 25.3528 14.9843 25.8908 14.9843H29.0264C29.5644 14.9843 30 15.4413 30 16.0057V19.1766C30 20.7331 28.7937 22 27.3114 22H24.4727C22.9879 22 21.7803 20.7331 21.7803 19.1766V11.8247C21.7803 10.2669 22.9879 9 24.4727 9H27.3114C28.7937 9 30 10.2669 30 11.8247C30 12.3878 29.5644 12.8448 29.0264 12.8448C28.4897 12.8448 28.0541 12.3878 28.0541 11.8247C28.0541 11.4011 27.7146 11.0421 27.3114 11.0421H24.4727C24.0613 11.0421 23.7268 11.3931 23.7268 11.8247V19.176C23.7262 19.607 24.0607 19.9579 24.4721 19.9579Z" fill="white"/>
</svg>
