<svg width="32" height="32" viewBox="0 0 32 32" fill="none" xmlns="http://www.w3.org/2000/svg">
<path d="M31.9459 8.64514C31.8848 7.46808 30.3191 6.87813 29.5079 7.74854L24.4167 12.8375C24.171 13.0758 23.7581 13.0758 23.5197 12.8375L19.1118 8.43153C18.8675 8.19467 18.8719 7.77182 19.1118 7.53493L24.1635 2.48538C25.03 1.68327 24.4485 0.0993206 23.2665 0.0484679C15.9993 -0.682442 10.6464 6.99449 13.7678 13.5451C13.8477 13.7122 13.8157 13.9025 13.6878 14.0217L2.25826 24.5802C-1.36019 28.1258 3.61462 33.3747 7.24601 29.8113L17.9283 18.2603C18.0475 18.1339 18.2379 18.1019 18.4051 18.1804C24.934 21.3148 32.7174 15.8829 31.947 8.64482L31.9459 8.64514ZM5.36213 27.9848C4.42301 28.8944 3.04626 27.5169 3.95635 26.5796C4.89547 25.67 6.27222 27.0475 5.36213 27.9848Z" fill="white"/>
</svg>
