<svg width="32" height="32" viewBox="0 0 32 32" fill="none" xmlns="http://www.w3.org/2000/svg">
<path d="M29.624 11.2342H2.37638C1.61619 11.2342 1 11.8522 1 12.6147V18.5961C1 19.3581 1.61619 19.9762 2.37638 19.9762H29.624C30.3838 19.9762 31 19.3581 31 18.5961V12.6143C31 11.8522 30.3838 11.2342 29.624 11.2342ZM21.2288 16.9393H4.07301V14.2711H21.2288V16.9393ZM27.3983 16.8473C26.7143 16.8473 26.16 16.291 26.16 15.605C26.16 14.9189 26.7143 14.363 27.3983 14.363C28.0827 14.363 28.637 14.9193 28.637 15.605C28.637 16.2906 28.0827 16.8473 27.3983 16.8473ZM29.624 21.2584H2.37638C1.61619 21.2584 1 21.8765 1 22.6385V28.6199C1 29.382 1.61619 30 2.37638 30H29.624C30.3838 30 31 29.382 31 28.6199V22.6385C31 21.8765 30.3838 21.2584 29.624 21.2584ZM21.2288 26.9635H4.07301V24.2953H21.2288V26.9635ZM27.3983 26.8716C26.7143 26.8716 26.16 26.3153 26.16 25.6292C26.16 24.9432 26.7143 24.3868 27.3983 24.3868C28.0827 24.3868 28.637 24.9432 28.637 25.6292C28.637 26.3153 28.0827 26.8716 27.3983 26.8716ZM29.624 1H2.37638C1.61619 1 1 1.61804 1 2.38051V8.36189C1 9.12395 1.61619 9.74198 2.37638 9.74198H29.624C30.3838 9.74198 31 9.12395 31 8.36189V2.38009C31 1.61804 30.3838 1 29.624 1ZM21.2288 6.70511H4.07301V4.03688H21.2288V6.70511ZM27.3983 6.61316C26.7143 6.61316 26.16 6.05684 26.16 5.37078C26.16 4.68473 26.7143 4.12883 27.3983 4.12883C28.0827 4.12883 28.637 4.68514 28.637 5.37078C28.637 6.05642 28.0827 6.61316 27.3983 6.61316Z" fill="white"/>
</svg>
