<svg width="32" height="32" viewBox="0 0 32 32" fill="none" xmlns="http://www.w3.org/2000/svg">
<path fill-rule="evenodd" clip-rule="evenodd" d="M10.8181 24.5714V23.9058C10.8181 23.5214 10.5994 23.1652 10.2443 22.975L10.24 22.9723C6.50691 20.942 4 17.1383 4 12.7857C4 6.28068 9.60073 1 16.5 1C23.3993 1 29 6.28068 29 12.7857C29 17.1369 26.4943 20.9406 22.7698 22.9816C22.767 22.9829 22.7641 22.9843 22.7613 22.9856C22.4119 23.1745 22.1959 23.5253 22.1959 23.9057V23.9191C22.1931 24.1213 22.1903 24.3396 22.1888 24.5713L10.8181 24.5714ZM22.1818 26.7143V27.7857C22.1818 29.5616 20.6562 31 18.7727 31H14.2272C12.3437 31 10.8181 29.5616 10.8181 27.7857V26.7143H22.1818Z" fill="white"/>
</svg>
