<svg width="32" height="32" viewBox="0 0 32 32" fill="none" xmlns="http://www.w3.org/2000/svg">
<path d="M15.3977 2C7.34146 2 0.794922 8.54654 0.794922 16.6027C0.794922 24.1413 6.52079 30.3589 13.8632 31.1256C15.1012 31.2549 16.1278 30.2174 16.1278 29.0151V23.174C16.1278 22.7621 16.446 22.4438 16.8579 22.4438H26.3497C27.769 22.4438 29.1925 21.5305 29.5583 20.0794C29.844 18.9463 29.9926 17.7818 30.0004 16.6084V16.6055V16.6027C30.0004 8.54654 23.4539 2 15.3977 2ZM11.0168 7.84109C12.2179 7.84109 13.2072 8.83043 13.2072 10.0315C13.2072 11.2326 12.2179 12.2219 11.0168 12.2219C9.81576 12.2219 8.82643 11.2326 8.82643 10.0315C8.82643 8.83043 9.81576 7.84109 11.0168 7.84109ZM19.7785 7.84109C20.9796 7.84109 21.9689 8.83043 21.9689 10.0315C21.9689 11.2326 20.9796 12.2219 19.7785 12.2219C18.5774 12.2219 17.5881 11.2326 17.5881 10.0315C17.5881 8.83043 18.5774 7.84109 19.7785 7.84109ZM7.36615 13.6822C8.56723 13.6822 9.55656 14.6715 9.55656 15.8726C9.55656 17.0737 8.56723 18.063 7.36615 18.063C6.16508 18.063 5.17574 17.0737 5.17574 15.8726C5.17574 14.6715 6.16508 13.6822 7.36615 13.6822ZM23.4292 13.6822C24.6302 13.6822 25.6196 14.6715 25.6196 15.8726C25.6196 17.0737 24.6302 18.063 23.4292 18.063C22.2281 18.063 21.2388 17.0737 21.2388 15.8726C21.2388 14.6715 22.2281 13.6822 23.4292 13.6822Z" fill="white"/>
</svg>
