<svg width="32" height="32" viewBox="0 0 32 32" fill="none" xmlns="http://www.w3.org/2000/svg">
<path d="M18 14C18 12.8964 17.1036 12 16 12C14.8987 12 14 12.8964 14 14C14 15.1036 14.8998 16 16 16C17.1036 16 18 15.1036 18 14Z" fill="white"/>
<path d="M31 18.2184L31 9.78125C31 7.14589 28.8639 5 26.2391 5L5.7596 5C3.13618 5 1 7.14579 1 9.78124L1 18.2174C0.998704 20.8541 3.13478 23 5.7596 23L26.2391 23C28.8638 23 31 20.8539 31 18.2184ZM11.9677 13.9998C11.9677 11.7668 13.7785 9.94924 16 9.94924C18.2229 9.94924 20.0323 11.7682 20.0323 13.9998C20.0323 16.2329 18.2215 18.0504 16 18.0504C13.7784 18.0504 11.9677 16.2328 11.9677 13.9998ZM5.28571 18.4828L5.28571 9.51692C5.28571 9.03646 5.67328 8.64713 6.15156 8.64713C6.62984 8.64713 7.0174 9.03646 7.0174 9.51692L7.0174 18.4818C7.0174 18.9622 6.62984 19.3515 6.15156 19.3515C5.67328 19.3515 5.28571 18.9619 5.28571 18.4828ZM24.4469 18.4828L24.4469 9.51692C24.4469 9.03646 24.8344 8.64713 25.3127 8.64713C25.791 8.64713 26.1786 9.03646 26.1786 9.51692L26.1786 18.4818C26.1786 18.9622 25.791 19.3515 25.3127 19.3515C24.8344 19.3515 24.4469 18.9619 24.4469 18.4828Z" fill="white"/>
</svg>
