<svg width="32" height="32" viewBox="0 0 32 32" fill="none" xmlns="http://www.w3.org/2000/svg">
<path d="M5.35268 5.41964C8.29912 2.4732 11.8482 1 16 1C20.1518 1 23.6897 2.46204 26.6138 5.38616C29.538 8.31028 31 11.8482 31 16C31 20.1518 29.538 23.6897 26.6138 26.6138C23.6897 29.538 20.1518 31 16 31C11.8482 31 8.31028 29.538 5.38616 26.6138C2.46204 23.6897 1 20.1518 1 16C1 11.8482 2.45088 8.32144 5.35268 5.41964ZM17.3393 22.8973C17.3839 22.317 17.2165 21.8259 16.8371 21.4241C16.4576 21.0223 15.9777 20.8214 15.3973 20.8214C14.8616 20.8214 14.3929 21 13.9911 21.3571C13.5893 21.7143 13.3884 22.183 13.3884 22.7634C13.3884 23.3438 13.567 23.8237 13.9241 24.2031C14.2813 24.5826 14.7277 24.7723 15.2634 24.7723C15.8438 24.7723 16.3348 24.6049 16.7366 24.2701C17.1384 23.9353 17.3393 23.4777 17.3393 22.8973ZM20.6205 14.3259C21.1563 13.567 21.4241 12.7634 21.4241 11.9152C21.4241 10.442 20.8661 9.28125 19.75 8.43304C18.6786 7.62946 17.2947 7.22768 15.5982 7.22768C14.3482 7.22768 13.2991 7.51785 12.4509 8.09821C11.2009 8.94643 10.5759 10.4643 10.5759 12.6518H13.8571C13.8571 11.7143 13.9464 11.1116 14.125 10.8438C14.5268 10.1741 15.1071 9.83929 15.8661 9.83929C16.625 9.83929 17.183 10.0848 17.5402 10.5759C17.8973 11.067 18.0759 11.5804 18.0759 12.1161C18.0759 12.4732 17.8973 12.9196 17.5402 13.4554C17.4509 13.6339 17.2277 13.8571 16.8705 14.125C15.7098 14.7946 14.9286 15.4643 14.5268 16.1339C14.1696 16.7143 13.9464 17.6295 13.8571 18.8795C13.8571 19.058 13.9464 19.1473 14.125 19.1473H16.7366C16.9598 19.1473 17.0714 19.058 17.0714 18.8795C17.0714 18.3884 17.1161 17.9643 17.2054 17.6071C17.3393 17.2054 17.6071 16.8259 18.0089 16.4688L18.9464 15.8661C19.7946 15.2411 20.3527 14.7277 20.6205 14.3259Z" fill="white"/>
</svg>
