<svg width="32" height="32" viewBox="0 0 32 32" fill="none" xmlns="http://www.w3.org/2000/svg">
<path fill-rule="evenodd" clip-rule="evenodd" d="M4.84898 3.50427H27.151C29.8188 3.50427 32 5.68876 32 8.35325V23.3867C32 26.0512 29.8188 28.2357 27.151 28.2357H4.84898C2.18122 28.2357 0 26.0512 0 23.3867V8.35325C0 5.68876 2.18122 3.50427 4.84898 3.50427ZM22.8604 7.06346C24.2318 7.06346 25.342 8.17366 25.342 9.54509C25.342 10.9165 24.2318 12.03 22.8604 12.03C21.489 12.03 20.3755 10.9165 20.3755 9.54509C20.3755 8.17366 21.489 7.06346 22.8604 7.06346ZM6.86694 20.6406L12.5649 11.39C13.0416 10.8414 14.1224 10.8414 14.5992 11.39L18.2988 17.3916L19.7649 15.0112C20.1045 14.6194 20.8718 14.6194 21.2114 15.0112L25.2571 21.581C26.0212 22.8218 25.2147 24.3435 23.8629 24.3435C18.8506 24.3435 13.8384 24.3435 8.82612 24.3435C6.90286 24.3435 5.78939 22.3875 6.86694 20.6406Z" fill="white"/>
</svg>
