<svg width="128" height="128" viewBox="0 0 128 128" fill="none" xmlns="http://www.w3.org/2000/svg">
<g clip-path="url(#clip0_1472_3)">
<rect width="128" height="128" fill="white"/>
<rect width="128" height="128" fill="url(#paint0_linear_1472_3)"/>
<path d="M111.488 82.8942H113.012V84.4177H111.488V82.8942ZM109.965 82.8942H111.488V84.4177H109.965V82.8942ZM108.441 82.8942H109.965V84.4177H108.441V82.8942ZM108.441 81.3707H109.965V82.8942H108.441V81.3707ZM106.917 81.3707H108.441V82.8942H106.917V81.3707ZM109.965 81.3707H111.488V82.8942H109.965V81.3707ZM111.488 81.3707H113.012V82.8942H111.488V81.3707ZM109.965 79.8471H111.488V81.3707H109.965V79.8471ZM108.441 79.8471H109.965V81.3707H108.441V79.8471ZM106.917 79.8471H108.441V81.3707H106.917V79.8471ZM106.917 78.3236H108.441V79.8471H106.917V78.3236ZM108.441 78.3236H109.965V79.8471H108.441V78.3236ZM105.394 78.3236H106.917V79.8471H105.394V78.3236ZM103.87 78.3236H105.394V79.8471H103.87V78.3236ZM102.347 78.3236H103.87V79.8471H102.347V78.3236ZM100.823 79.8471H102.347V81.3707H100.823V79.8471ZM99.2999 79.8471H100.823V81.3707H99.2999V79.8471ZM99.2999 78.3236H100.823V79.8471H99.2999V78.3236ZM100.823 78.3236H102.347V79.8471H100.823V78.3236ZM102.347 79.8471H103.87V81.3707H102.347V79.8471ZM102.347 81.3707H103.87V82.8942H102.347V81.3707ZM103.87 81.3707H105.394V82.8942H103.87V81.3707ZM105.394 81.3707H106.917V82.8942H105.394V81.3707ZM105.394 79.8471H106.917V81.3707H105.394V79.8471ZM103.87 79.8471H105.394V81.3707H103.87V79.8471ZM100.823 81.3707H102.347V82.8942H100.823V81.3707ZM99.2999 81.3707H100.823V82.8942H99.2999V81.3707ZM97.7764 81.3707H99.2999V82.8942H97.7764V81.3707ZM96.2528 81.3707H97.7764V82.8942H96.2528V81.3707ZM96.2528 79.8471H97.7764V81.3707H96.2528V79.8471ZM97.7764 79.8471H99.2999V81.3707H97.7764V79.8471ZM99.2999 82.8942H100.823V84.4177H99.2999V82.8942ZM100.823 82.8942H102.347V84.4177H100.823V82.8942ZM97.7764 82.8942H99.2999V84.4177H97.7764V82.8942ZM96.2528 82.8942H97.7764V84.4177H96.2528V82.8942ZM94.7293 82.8942H96.2528V84.4177H94.7293V82.8942ZM96.2528 84.4177H97.7764V85.9412H96.2528V84.4177ZM94.7293 84.4177H96.2528V85.9412H94.7293V84.4177ZM94.7293 85.9412H96.2528V87.4647H94.7293V85.9412ZM96.2528 85.9412H97.7764V87.4647H96.2528V85.9412ZM97.7764 84.4177H99.2999V85.9412H97.7764V84.4177ZM99.2999 84.4177H100.823V85.9412H99.2999V84.4177ZM99.2999 85.9412H100.823V87.4647H99.2999V85.9412ZM100.823 85.9412H102.347V87.4647H100.823V85.9412ZM97.7764 85.9412H99.2999V87.4647H97.7764V85.9412ZM97.7764 87.4647H99.2999V88.9883H97.7764V87.4647ZM96.2528 87.4647H97.7764V88.9883H96.2528V87.4647ZM97.7764 88.9883H99.2999V90.5118H97.7764V88.9883ZM96.2528 88.9883H97.7764V90.5118H96.2528V88.9883ZM99.2999 87.4647H100.823V88.9883H99.2999V87.4647ZM100.823 87.4647H102.347V88.9883H100.823V87.4647ZM100.823 88.9883H102.347V90.5118H100.823V88.9883ZM100.823 90.5118H102.347V92.0353H100.823V90.5118ZM99.2999 90.5118H100.823V92.0353H99.2999V90.5118ZM99.2999 88.9883H100.823V90.5118H99.2999V88.9883ZM102.347 88.9883H103.87V90.5118H102.347V88.9883ZM103.87 88.9883H105.394V90.5118H103.87V88.9883ZM103.87 87.4647H105.394V88.9883H103.87V87.4647ZM105.394 87.4647H106.917V88.9883H105.394V87.4647ZM106.917 87.4647H108.441V88.9883H106.917V87.4647ZM108.441 87.4647H109.965V88.9883H108.441V87.4647ZM102.347 87.4647H103.87V88.9883H102.347V87.4647ZM102.347 90.5118H103.87V92.0353H102.347V90.5118ZM103.87 90.5118H105.394V92.0353H103.87V90.5118ZM105.394 90.5118H106.917V92.0353H105.394V90.5118ZM106.917 90.5118H108.441V92.0353H106.917V90.5118ZM108.441 90.5118H109.965V92.0353H108.441V90.5118ZM108.441 88.9883H109.965V90.5118H108.441V88.9883ZM106.917 88.9883H108.441V90.5118H106.917V88.9883ZM105.394 88.9883H106.917V90.5118H105.394V88.9883ZM111.488 88.9883H113.012V90.5118H111.488V88.9883ZM109.965 88.9883H111.488V90.5118H109.965V88.9883ZM109.965 90.5118H111.488V92.0353H109.965V90.5118ZM111.488 90.5118H113.012V92.0353H111.488V90.5118ZM108.441 92.0353H109.965V93.5588H108.441V92.0353ZM106.917 92.0353H108.441V93.5588H106.917V92.0353ZM109.965 92.0353H111.488V93.5588H109.965V92.0353ZM111.488 92.0353H113.012V93.5588H111.488V92.0353ZM113.012 92.0353H114.535V93.5588H113.012V92.0353ZM113.012 93.5588H114.535V95.0824H113.012V93.5588ZM113.012 95.0824H114.535V96.6059H113.012V95.0824ZM111.488 95.0824H113.012V96.6059H111.488V95.0824ZM111.488 93.5588H113.012V95.0824H111.488V93.5588ZM109.965 93.5588H111.488V95.0824H109.965V93.5588ZM109.965 95.0824H111.488V96.6059H109.965V95.0824ZM108.441 93.5588H109.965V95.0824H108.441V93.5588ZM108.441 95.0824H109.965V96.6059H108.441V95.0824ZM106.917 95.0824H108.441V96.6059H106.917V95.0824ZM106.917 96.6059H108.441V98.1294H106.917V96.6059ZM108.441 96.6059H109.965V98.1294H108.441V96.6059ZM108.441 98.1294H109.965V99.6529H108.441V98.1294ZM109.965 98.1294H111.488V99.6529H109.965V98.1294ZM109.965 96.6059H111.488V98.1294H109.965V96.6059ZM111.488 96.6059H113.012V98.1294H111.488V96.6059ZM111.488 98.1294H113.012V99.6529H111.488V98.1294ZM108.441 99.6529H109.965V101.176H108.441V99.6529ZM106.917 99.6529H108.441V101.176H106.917V99.6529ZM106.917 98.1294H108.441V99.6529H106.917V98.1294ZM105.394 98.1294H106.917V99.6529H105.394V98.1294ZM103.87 98.1294H105.394V99.6529H103.87V98.1294ZM102.347 98.1294H103.87V99.6529H102.347V98.1294ZM102.347 96.6059H103.87V98.1294H102.347V96.6059ZM103.87 96.6059H105.394V98.1294H103.87V96.6059ZM105.394 96.6059H106.917V98.1294H105.394V96.6059ZM105.394 99.6529H106.917V101.176H105.394V99.6529ZM103.87 99.6529H105.394V101.176H103.87V99.6529ZM102.347 99.6529H103.87V101.176H102.347V99.6529ZM100.823 99.6529H102.347V101.176H100.823V99.6529ZM99.2999 99.6529H100.823V101.176H99.2999V99.6529ZM99.2999 98.1294H100.823V99.6529H99.2999V98.1294ZM100.823 98.1294H102.347V99.6529H100.823V98.1294ZM100.823 96.6059H102.347V98.1294H100.823V96.6059ZM99.2999 96.6059H100.823V98.1294H99.2999V96.6059ZM97.7764 98.1294H99.2999V99.6529H97.7764V98.1294ZM96.2528 98.1294H97.7764V99.6529H96.2528V98.1294ZM96.2528 96.6059H97.7764V98.1294H96.2528V96.6059ZM97.7764 96.6059H99.2999V98.1294H97.7764V96.6059ZM99.2999 95.0824H100.823V96.6059H99.2999V95.0824ZM100.823 95.0824H102.347V96.6059H100.823V95.0824ZM99.2999 93.5588H100.823V95.0824H99.2999V93.5588ZM97.7764 93.5588H99.2999V95.0824H97.7764V93.5588ZM96.2528 93.5588H97.7764V95.0824H96.2528V93.5588ZM94.7293 93.5588H96.2528V95.0824H94.7293V93.5588ZM94.7293 95.0824H96.2528V96.6059H94.7293V95.0824ZM96.2528 95.0824H97.7764V96.6059H96.2528V95.0824ZM97.7764 95.0824H99.2999V96.6059H97.7764V95.0824ZM113.012 82.8942H114.535V84.4177H113.012V82.8942ZM111.488 79.8471H113.012V81.3707H111.488V79.8471ZM113.012 84.4177H114.535V85.9412H113.012V84.4177ZM111.488 84.4177H113.012V85.9412H111.488V84.4177ZM109.965 84.4177H111.488V85.9412H109.965V84.4177ZM108.441 84.4177H109.965V85.9412H108.441V84.4177ZM106.917 82.8942H108.441V84.4177H106.917V82.8942Z" fill="white"/>
<path d="M84.0557 70.7061H85.5792V72.2296H84.0557V70.7061ZM84.0557 72.2296H85.5792V73.7531H84.0557V72.2296ZM84.0557 73.7531H85.5792V75.2766H84.0557V73.7531ZM84.0557 75.2766H85.5792V76.8001H84.0557V75.2766ZM85.5792 76.8001H87.1028V78.3237H85.5792V76.8001ZM85.5792 78.3237H87.1028V79.8472H85.5792V78.3237ZM85.5792 79.8472H87.1028V81.3707H85.5792V79.8472ZM85.5792 81.3707H87.1028V82.8942H85.5792V81.3707ZM85.5792 82.8942H87.1028V84.4178H85.5792V82.8942ZM85.5792 84.4178H87.1028V85.9413H85.5792V84.4178ZM85.5792 85.9413H87.1028V87.4648H85.5792V85.9413ZM84.0557 85.9413H85.5792V87.4648H84.0557V85.9413ZM84.0557 84.4178H85.5792V85.9413H84.0557V84.4178ZM84.0557 82.8942H85.5792V84.4178H84.0557V82.8942ZM84.0557 81.3707H85.5792V82.8942H84.0557V81.3707ZM84.0557 79.8472H85.5792V81.3707H84.0557V79.8472ZM84.0557 78.3237H85.5792V79.8472H84.0557V78.3237ZM84.0557 76.8001H85.5792V78.3237H84.0557V76.8001ZM84.0557 95.0824H85.5792V96.606H84.0557V95.0824ZM84.0557 93.5589H85.5792V95.0824H84.0557V93.5589ZM84.0557 92.0354H85.5792V93.5589H84.0557V92.0354ZM84.0557 90.5119H85.5792V92.0354H84.0557V90.5119ZM85.5792 88.9883H87.1028V90.5119H85.5792V88.9883ZM85.5792 87.4648H87.1028V88.9883H85.5792V87.4648ZM84.0557 87.4648H85.5792V88.9883H84.0557V87.4648ZM84.0557 88.9883H85.5792V90.5119H84.0557V88.9883ZM84.0557 96.606H85.5792V98.1295H84.0557V96.606ZM84.0557 98.1295H85.5792V99.653H84.0557V98.1295ZM84.0557 99.653H85.5792V101.177H84.0557V99.653ZM85.5792 70.7061H87.1028V72.2296H85.5792V70.7061ZM87.1028 70.7061H88.6263V72.2296H87.1028V70.7061ZM88.6263 70.7061H90.1498V72.2296H88.6263V70.7061ZM88.6263 72.2296H90.1498V73.7531H88.6263V72.2296ZM88.6263 73.7531H90.1498V75.2766H88.6263V73.7531ZM88.6263 75.2766H90.1498V76.8001H88.6263V75.2766ZM88.6263 76.8001H90.1498V78.3237H88.6263V76.8001ZM88.6263 79.8472H90.1498V81.3707H88.6263V79.8472ZM88.6263 81.3707H90.1498V82.8942H88.6263V81.3707ZM88.6263 82.8942H90.1498V84.4178H88.6263V82.8942ZM88.6263 84.4178H90.1498V85.9413H88.6263V84.4178ZM88.6263 85.9413H90.1498V87.4648H88.6263V85.9413ZM88.6263 87.4648H90.1498V88.9883H88.6263V87.4648ZM88.6263 88.9883H90.1498V90.5119H88.6263V88.9883ZM88.6263 90.5119H90.1498V92.0354H88.6263V90.5119ZM88.6263 92.0354H90.1498V93.5589H88.6263V92.0354ZM88.6263 78.3237H90.1498V79.8472H88.6263V78.3237ZM88.6263 93.5589H90.1498V95.0824H88.6263V93.5589ZM88.6263 95.0824H90.1498V96.606H88.6263V95.0824ZM88.6263 96.606H90.1498V98.1295H88.6263V96.606ZM88.6263 98.1295H90.1498V99.653H88.6263V98.1295ZM88.6263 99.653H90.1498V101.177H88.6263V99.653ZM87.1028 99.653H88.6263V101.177H87.1028V99.653ZM85.5792 99.653H87.1028V101.177H85.5792V99.653ZM85.5792 98.1295H87.1028V99.653H85.5792V98.1295ZM87.1028 98.1295H88.6263V99.653H87.1028V98.1295ZM87.1028 96.606H88.6263V98.1295H87.1028V96.606ZM85.5792 95.0824H87.1028V96.606H85.5792V95.0824ZM85.5792 93.5589H87.1028V95.0824H85.5792V93.5589ZM85.5792 92.0354H87.1028V93.5589H85.5792V92.0354ZM87.1028 92.0354H88.6263V93.5589H87.1028V92.0354ZM87.1028 93.5589H88.6263V95.0824H87.1028V93.5589ZM87.1028 95.0824H88.6263V96.606H87.1028V95.0824ZM85.5792 96.606H87.1028V98.1295H85.5792V96.606ZM87.1028 90.5119H88.6263V92.0354H87.1028V90.5119ZM87.1028 88.9883H88.6263V90.5119H87.1028V88.9883ZM87.1028 87.4648H88.6263V88.9883H87.1028V87.4648ZM85.5792 90.5119H87.1028V92.0354H85.5792V90.5119ZM87.1028 85.9413H88.6263V87.4648H87.1028V85.9413ZM87.1028 84.4178H88.6263V85.9413H87.1028V84.4178ZM87.1028 82.8942H88.6263V84.4178H87.1028V82.8942ZM87.1028 81.3707H88.6263V82.8942H87.1028V81.3707ZM87.1028 79.8472H88.6263V81.3707H87.1028V79.8472ZM87.1028 78.3237H88.6263V79.8472H87.1028V78.3237ZM87.1028 76.8001H88.6263V78.3237H87.1028V76.8001ZM87.1028 75.2766H88.6263V76.8001H87.1028V75.2766ZM87.1028 73.7531H88.6263V75.2766H87.1028V73.7531ZM87.1028 72.2296H88.6263V73.7531H87.1028V72.2296ZM85.5792 72.2296H87.1028V73.7531H85.5792V72.2296ZM85.5792 73.7531H87.1028V75.2766H85.5792V73.7531ZM85.5792 75.2766H87.1028V76.8001H85.5792V75.2766Z" fill="white"/>
<path d="M65.7675 78.3236H67.291V79.8471H65.7675V78.3236ZM67.291 78.3236H68.8145V79.8471H67.291V78.3236ZM64.2439 78.3236H65.7675V79.8471H64.2439V78.3236ZM68.8145 78.3236H70.338V79.8471H68.8145V78.3236ZM70.338 78.3236H71.8616V79.8471H70.338V78.3236ZM71.8616 78.3236H73.3851V79.8471H71.8616V78.3236ZM73.3851 78.3236H74.9086V79.8471H73.3851V78.3236ZM74.9086 79.8471H76.4321V81.3707H74.9086V79.8471ZM73.3851 79.8471H74.9086V81.3707H73.3851V79.8471ZM73.3851 81.3707H74.9086V82.8942H73.3851V81.3707ZM76.4321 79.8471H77.9557V81.3707H76.4321V79.8471ZM76.4321 81.3707H77.9557V82.8942H76.4321V81.3707ZM74.9086 81.3707H76.4321V82.8942H74.9086V81.3707ZM73.3851 82.8942H74.9086V84.4177H73.3851V82.8942ZM71.8616 82.8942H73.3851V84.4177H71.8616V82.8942ZM74.9086 82.8942H76.4321V84.4177H74.9086V82.8942ZM76.4321 82.8942H77.9557V84.4177H76.4321V82.8942ZM77.9557 82.8942H79.4792V84.4177H77.9557V82.8942ZM77.9557 84.4177H79.4792V85.9412H77.9557V84.4177ZM77.9557 85.9412H79.4792V87.4647H77.9557V85.9412ZM77.9557 87.4647H79.4792V88.9883H77.9557V87.4647ZM77.9557 88.9883H79.4792V90.5118H77.9557V88.9883ZM77.9557 90.5118H79.4792V92.0353H77.9557V90.5118ZM77.9557 92.0353H79.4792V93.5588H77.9557V92.0353ZM77.9557 93.5588H79.4792V95.0824H77.9557V93.5588ZM77.9557 95.0824H79.4792V96.6059H77.9557V95.0824ZM76.4321 95.0824H77.9557V96.6059H76.4321V95.0824ZM76.4321 96.6059H77.9557V98.1294H76.4321V96.6059ZM76.4321 98.1294H77.9557V99.6529H76.4321V98.1294ZM74.9086 98.1294H76.4321V99.6529H74.9086V98.1294ZM73.3851 98.1294H74.9086V99.6529H73.3851V98.1294ZM71.8616 96.6059H73.3851V98.1294H71.8616V96.6059ZM71.8616 95.0824H73.3851V96.6059H71.8616V95.0824ZM73.3851 95.0824H74.9086V96.6059H73.3851V95.0824ZM73.3851 96.6059H74.9086V98.1294H73.3851V96.6059ZM74.9086 96.6059H76.4321V98.1294H74.9086V96.6059ZM74.9086 95.0824H76.4321V96.6059H74.9086V95.0824ZM74.9086 93.5588H76.4321V95.0824H74.9086V93.5588ZM73.3851 93.5588H74.9086V95.0824H73.3851V93.5588ZM73.3851 92.0353H74.9086V93.5588H73.3851V92.0353ZM73.3851 90.5118H74.9086V92.0353H73.3851V90.5118ZM73.3851 88.9883H74.9086V90.5118H73.3851V88.9883ZM73.3851 87.4647H74.9086V88.9883H73.3851V87.4647ZM73.3851 85.9412H74.9086V87.4647H73.3851V85.9412ZM73.3851 84.4177H74.9086V85.9412H73.3851V84.4177ZM74.9086 84.4177H76.4321V85.9412H74.9086V84.4177ZM74.9086 85.9412H76.4321V87.4647H74.9086V85.9412ZM74.9086 87.4647H76.4321V88.9883H74.9086V87.4647ZM74.9086 88.9883H76.4321V90.5118H74.9086V88.9883ZM74.9086 90.5118H76.4321V92.0353H74.9086V90.5118ZM74.9086 92.0353H76.4321V93.5588H74.9086V92.0353ZM76.4321 93.5588H77.9557V95.0824H76.4321V93.5588ZM76.4321 92.0353H77.9557V93.5588H76.4321V92.0353ZM76.4321 90.5118H77.9557V92.0353H76.4321V90.5118ZM76.4321 88.9883H77.9557V90.5118H76.4321V88.9883ZM76.4321 87.4647H77.9557V88.9883H76.4321V87.4647ZM76.4321 85.9412H77.9557V87.4647H76.4321V85.9412ZM76.4321 84.4177H77.9557V85.9412H76.4321V84.4177ZM71.8616 98.1294H73.3851V99.6529H71.8616V98.1294ZM71.8616 99.6529H73.3851V101.176H71.8616V99.6529ZM73.3851 99.6529H74.9086V101.176H73.3851V99.6529ZM70.338 99.6529H71.8616V101.176H70.338V99.6529ZM68.8145 99.6529H70.338V101.176H68.8145V99.6529ZM67.291 99.6529H68.8145V101.176H67.291V99.6529ZM65.7675 99.6529H67.291V101.176H65.7675V99.6529ZM64.2439 99.6529H65.7675V101.176H64.2439V99.6529ZM64.2439 98.1294H65.7675V99.6529H64.2439V98.1294ZM62.7204 98.1294H64.2439V99.6529H62.7204V98.1294ZM61.1969 98.1294H62.7204V99.6529H61.1969V98.1294ZM61.1969 96.6059H62.7204V98.1294H61.1969V96.6059ZM59.6734 95.0824H61.1969V96.6059H59.6734V95.0824ZM61.1969 95.0824H62.7204V96.6059H61.1969V95.0824ZM59.6734 93.5588H61.1969V95.0824H59.6734V93.5588ZM59.6734 92.0353H61.1969V93.5588H59.6734V92.0353ZM59.6734 90.5118H61.1969V92.0353H59.6734V90.5118ZM59.6734 88.9883H61.1969V90.5118H59.6734V88.9883ZM59.6734 87.4647H61.1969V88.9883H59.6734V87.4647ZM59.6734 85.9412H61.1969V87.4647H59.6734V85.9412ZM61.1969 85.9412H62.7204V87.4647H61.1969V85.9412ZM61.1969 84.4177H62.7204V85.9412H61.1969V84.4177ZM59.6734 84.4177H61.1969V85.9412H59.6734V84.4177ZM59.6734 82.8942H61.1969V84.4177H59.6734V82.8942ZM61.1969 82.8942H62.7204V84.4177H61.1969V82.8942ZM61.1969 81.3707H62.7204V82.8942H61.1969V81.3707ZM61.1969 79.8471H62.7204V81.3707H61.1969V79.8471ZM62.7204 79.8471H64.2439V81.3707H62.7204V79.8471ZM64.2439 79.8471H65.7675V81.3707H64.2439V79.8471ZM65.7675 79.8471H67.291V81.3707H65.7675V79.8471ZM65.7675 81.3707H67.291V82.8942H65.7675V81.3707ZM65.7675 82.8942H67.291V84.4177H65.7675V82.8942ZM64.2439 82.8942H65.7675V84.4177H64.2439V82.8942ZM62.7204 82.8942H64.2439V84.4177H62.7204V82.8942ZM64.2439 84.4177H65.7675V85.9412H64.2439V84.4177ZM64.2439 85.9412H65.7675V87.4647H64.2439V85.9412ZM64.2439 87.4647H65.7675V88.9883H64.2439V87.4647ZM64.2439 88.9883H65.7675V90.5118H64.2439V88.9883ZM64.2439 90.5118H65.7675V92.0353H64.2439V90.5118ZM64.2439 92.0353H65.7675V93.5588H64.2439V92.0353ZM64.2439 93.5588H65.7675V95.0824H64.2439V93.5588ZM64.2439 95.0824H65.7675V96.6059H64.2439V95.0824ZM65.7675 95.0824H67.291V96.6059H65.7675V95.0824ZM65.7675 96.6059H67.291V98.1294H65.7675V96.6059ZM67.291 96.6059H68.8145V98.1294H67.291V96.6059ZM68.8145 96.6059H70.338V98.1294H68.8145V96.6059ZM70.338 96.6059H71.8616V98.1294H70.338V96.6059ZM70.338 98.1294H71.8616V99.6529H70.338V98.1294ZM68.8145 98.1294H70.338V99.6529H68.8145V98.1294ZM67.291 98.1294H68.8145V99.6529H67.291V98.1294ZM65.7675 98.1294H67.291V99.6529H65.7675V98.1294ZM64.2439 96.6059H65.7675V98.1294H64.2439V96.6059ZM62.7204 96.6059H64.2439V98.1294H62.7204V96.6059ZM62.7204 95.0824H64.2439V96.6059H62.7204V95.0824ZM62.7204 93.5588H64.2439V95.0824H62.7204V93.5588ZM62.7204 92.0353H64.2439V93.5588H62.7204V92.0353ZM61.1969 92.0353H62.7204V93.5588H61.1969V92.0353ZM61.1969 93.5588H62.7204V95.0824H61.1969V93.5588ZM61.1969 90.5118H62.7204V92.0353H61.1969V90.5118ZM61.1969 88.9883H62.7204V90.5118H61.1969V88.9883ZM61.1969 87.4647H62.7204V88.9883H61.1969V87.4647ZM62.7204 87.4647H64.2439V88.9883H62.7204V87.4647ZM62.7204 88.9883H64.2439V90.5118H62.7204V88.9883ZM62.7204 90.5118H64.2439V92.0353H62.7204V90.5118ZM62.7204 85.9412H64.2439V87.4647H62.7204V85.9412ZM62.7204 84.4177H64.2439V85.9412H62.7204V84.4177ZM62.7204 81.3707H64.2439V82.8942H62.7204V81.3707ZM64.2439 81.3707H65.7675V82.8942H64.2439V81.3707ZM67.291 79.8471H68.8145V81.3707H67.291V79.8471ZM68.8145 79.8471H70.338V81.3707H68.8145V79.8471ZM70.338 79.8471H71.8616V81.3707H70.338V79.8471ZM71.8616 79.8471H73.3851V81.3707H71.8616V79.8471ZM71.8616 81.3707H73.3851V82.8942H71.8616V81.3707ZM70.338 81.3707H71.8616V82.8942H70.338V81.3707ZM68.8145 81.3707H70.338V82.8942H68.8145V81.3707ZM67.291 81.3707H68.8145V82.8942H67.291V81.3707Z" fill="white"/>
<path d="M41.3851 78.3236H42.9087V79.8471H41.3851V78.3236ZM42.9087 78.3236H44.4322V79.8471H42.9087V78.3236ZM39.8616 78.3236H41.3851V79.8471H39.8616V78.3236ZM44.4322 78.3236H45.9557V79.8471H44.4322V78.3236ZM45.9557 78.3236H47.4792V79.8471H45.9557V78.3236ZM47.4792 78.3236H49.0028V79.8471H47.4792V78.3236ZM49.0028 78.3236H50.5263V79.8471H49.0028V78.3236ZM50.5263 79.8471H52.0498V81.3707H50.5263V79.8471ZM49.0028 79.8471H50.5263V81.3707H49.0028V79.8471ZM49.0028 81.3707H50.5263V82.8942H49.0028V81.3707ZM52.0498 79.8471H53.5733V81.3707H52.0498V79.8471ZM52.0498 81.3707H53.5733V82.8942H52.0498V81.3707ZM50.5263 81.3707H52.0498V82.8942H50.5263V81.3707ZM49.0028 82.8942H50.5263V84.4177H49.0028V82.8942ZM47.4792 82.8942H49.0028V84.4177H47.4792V82.8942ZM50.5263 82.8942H52.0498V84.4177H50.5263V82.8942ZM52.0498 82.8942H53.5733V84.4177H52.0498V82.8942ZM53.5733 82.8942H55.0969V84.4177H53.5733V82.8942ZM53.5733 84.4177H55.0969V85.9412H53.5733V84.4177ZM53.5733 85.9412H55.0969V87.4647H53.5733V85.9412ZM53.5733 87.4647H55.0969V88.9883H53.5733V87.4647ZM53.5733 88.9883H55.0969V90.5118H53.5733V88.9883ZM53.5733 90.5118H55.0969V92.0353H53.5733V90.5118ZM53.5733 92.0353H55.0969V93.5588H53.5733V92.0353ZM53.5733 93.5588H55.0969V95.0824H53.5733V93.5588ZM53.5733 95.0824H55.0969V96.6059H53.5733V95.0824ZM52.0498 95.0824H53.5733V96.6059H52.0498V95.0824ZM52.0498 96.6059H53.5733V98.1294H52.0498V96.6059ZM52.0498 98.1294H53.5733V99.6529H52.0498V98.1294ZM50.5263 98.1294H52.0498V99.6529H50.5263V98.1294ZM49.0028 98.1294H50.5263V99.6529H49.0028V98.1294ZM47.4792 96.6059H49.0028V98.1294H47.4792V96.6059ZM47.4792 95.0824H49.0028V96.6059H47.4792V95.0824ZM49.0028 95.0824H50.5263V96.6059H49.0028V95.0824ZM49.0028 96.6059H50.5263V98.1294H49.0028V96.6059ZM50.5263 96.6059H52.0498V98.1294H50.5263V96.6059ZM50.5263 95.0824H52.0498V96.6059H50.5263V95.0824ZM50.5263 93.5588H52.0498V95.0824H50.5263V93.5588ZM49.0028 93.5588H50.5263V95.0824H49.0028V93.5588ZM49.0028 92.0353H50.5263V93.5588H49.0028V92.0353ZM49.0028 90.5118H50.5263V92.0353H49.0028V90.5118ZM49.0028 88.9883H50.5263V90.5118H49.0028V88.9883ZM49.0028 87.4647H50.5263V88.9883H49.0028V87.4647ZM49.0028 85.9412H50.5263V87.4647H49.0028V85.9412ZM49.0028 84.4177H50.5263V85.9412H49.0028V84.4177ZM50.5263 84.4177H52.0498V85.9412H50.5263V84.4177ZM50.5263 85.9412H52.0498V87.4647H50.5263V85.9412ZM50.5263 87.4647H52.0498V88.9883H50.5263V87.4647ZM50.5263 88.9883H52.0498V90.5118H50.5263V88.9883ZM50.5263 90.5118H52.0498V92.0353H50.5263V90.5118ZM50.5263 92.0353H52.0498V93.5588H50.5263V92.0353ZM52.0498 93.5588H53.5733V95.0824H52.0498V93.5588ZM52.0498 92.0353H53.5733V93.5588H52.0498V92.0353ZM52.0498 90.5118H53.5733V92.0353H52.0498V90.5118ZM52.0498 88.9883H53.5733V90.5118H52.0498V88.9883ZM52.0498 87.4647H53.5733V88.9883H52.0498V87.4647ZM52.0498 85.9412H53.5733V87.4647H52.0498V85.9412ZM52.0498 84.4177H53.5733V85.9412H52.0498V84.4177ZM47.4792 98.1294H49.0028V99.6529H47.4792V98.1294ZM47.4792 99.6529H49.0028V101.176H47.4792V99.6529ZM49.0028 99.6529H50.5263V101.176H49.0028V99.6529ZM45.9557 99.6529H47.4792V101.176H45.9557V99.6529ZM44.4322 99.6529H45.9557V101.176H44.4322V99.6529ZM42.9087 99.6529H44.4322V101.176H42.9087V99.6529ZM41.3851 99.6529H42.9087V101.176H41.3851V99.6529ZM39.8616 99.6529H41.3851V101.176H39.8616V99.6529ZM39.8616 98.1294H41.3851V99.6529H39.8616V98.1294ZM38.3381 98.1294H39.8616V99.6529H38.3381V98.1294ZM36.8146 98.1294H38.3381V99.6529H36.8146V98.1294ZM36.8146 96.6059H38.3381V98.1294H36.8146V96.6059ZM35.291 95.0824H36.8146V96.6059H35.291V95.0824ZM36.8146 95.0824H38.3381V96.6059H36.8146V95.0824ZM35.291 93.5588H36.8146V95.0824H35.291V93.5588ZM35.291 92.0353H36.8146V93.5588H35.291V92.0353ZM35.291 90.5118H36.8146V92.0353H35.291V90.5118ZM35.291 88.9883H36.8146V90.5118H35.291V88.9883ZM35.291 87.4647H36.8146V88.9883H35.291V87.4647ZM35.291 85.9412H36.8146V87.4647H35.291V85.9412ZM36.8146 85.9412H38.3381V87.4647H36.8146V85.9412ZM36.8146 84.4177H38.3381V85.9412H36.8146V84.4177ZM35.291 84.4177H36.8146V85.9412H35.291V84.4177ZM35.291 82.8942H36.8146V84.4177H35.291V82.8942ZM36.8146 82.8942H38.3381V84.4177H36.8146V82.8942ZM36.8146 81.3707H38.3381V82.8942H36.8146V81.3707ZM36.8146 79.8471H38.3381V81.3707H36.8146V79.8471ZM38.3381 79.8471H39.8616V81.3707H38.3381V79.8471ZM39.8616 79.8471H41.3851V81.3707H39.8616V79.8471ZM41.3851 79.8471H42.9087V81.3707H41.3851V79.8471ZM41.3851 81.3707H42.9087V82.8942H41.3851V81.3707ZM41.3851 82.8942H42.9087V84.4177H41.3851V82.8942ZM39.8616 82.8942H41.3851V84.4177H39.8616V82.8942ZM38.3381 82.8942H39.8616V84.4177H38.3381V82.8942ZM39.8616 84.4177H41.3851V85.9412H39.8616V84.4177ZM39.8616 85.9412H41.3851V87.4647H39.8616V85.9412ZM39.8616 87.4647H41.3851V88.9883H39.8616V87.4647ZM39.8616 88.9883H41.3851V90.5118H39.8616V88.9883ZM39.8616 90.5118H41.3851V92.0353H39.8616V90.5118ZM39.8616 92.0353H41.3851V93.5588H39.8616V92.0353ZM39.8616 93.5588H41.3851V95.0824H39.8616V93.5588ZM39.8616 95.0824H41.3851V96.6059H39.8616V95.0824ZM41.3851 95.0824H42.9087V96.6059H41.3851V95.0824ZM41.3851 96.6059H42.9087V98.1294H41.3851V96.6059ZM42.9087 96.6059H44.4322V98.1294H42.9087V96.6059ZM44.4322 96.6059H45.9557V98.1294H44.4322V96.6059ZM45.9557 96.6059H47.4792V98.1294H45.9557V96.6059ZM45.9557 98.1294H47.4792V99.6529H45.9557V98.1294ZM44.4322 98.1294H45.9557V99.6529H44.4322V98.1294ZM42.9087 98.1294H44.4322V99.6529H42.9087V98.1294ZM41.3851 98.1294H42.9087V99.6529H41.3851V98.1294ZM39.8616 96.6059H41.3851V98.1294H39.8616V96.6059ZM38.3381 96.6059H39.8616V98.1294H38.3381V96.6059ZM38.3381 95.0824H39.8616V96.6059H38.3381V95.0824ZM38.3381 93.5588H39.8616V95.0824H38.3381V93.5588ZM38.3381 92.0353H39.8616V93.5588H38.3381V92.0353ZM36.8146 92.0353H38.3381V93.5588H36.8146V92.0353ZM36.8146 93.5588H38.3381V95.0824H36.8146V93.5588ZM36.8146 90.5118H38.3381V92.0353H36.8146V90.5118ZM36.8146 88.9883H38.3381V90.5118H36.8146V88.9883ZM36.8146 87.4647H38.3381V88.9883H36.8146V87.4647ZM38.3381 87.4647H39.8616V88.9883H38.3381V87.4647ZM38.3381 88.9883H39.8616V90.5118H38.3381V88.9883ZM38.3381 90.5118H39.8616V92.0353H38.3381V90.5118ZM38.3381 85.9412H39.8616V87.4647H38.3381V85.9412ZM38.3381 84.4177H39.8616V85.9412H38.3381V84.4177ZM38.3381 81.3707H39.8616V82.8942H38.3381V81.3707ZM39.8616 81.3707H41.3851V82.8942H39.8616V81.3707ZM42.9087 79.8471H44.4322V81.3707H42.9087V79.8471ZM44.4322 79.8471H45.9557V81.3707H44.4322V79.8471ZM45.9557 79.8471H47.4792V81.3707H45.9557V79.8471ZM47.4792 79.8471H49.0028V81.3707H47.4792V79.8471ZM47.4792 81.3707H49.0028V82.8942H47.4792V81.3707ZM45.9557 81.3707H47.4792V82.8942H45.9557V81.3707ZM44.4322 81.3707H45.9557V82.8942H44.4322V81.3707ZM42.9087 81.3707H44.4322V82.8942H42.9087V81.3707Z" fill="white"/>
<path d="M18.5204 99.653H20.0439V101.177H18.5204V99.653ZM20.0439 99.653H21.5674V101.177H20.0439V99.653ZM21.5674 99.653H23.091V101.177H21.5674V99.653ZM23.091 99.653H24.6145V101.177H23.091V99.653ZM23.091 98.1295H24.6145V99.653H23.091V98.1295ZM21.5674 98.1295H23.091V99.653H21.5674V98.1295ZM20.0439 98.1295H21.5674V99.653H20.0439V98.1295ZM18.5204 98.1295H20.0439V99.653H18.5204V98.1295ZM18.5204 96.606H20.0439V98.1295H18.5204V96.606ZM18.5204 95.0824H20.0439V96.606H18.5204V95.0824ZM18.5204 93.5589H20.0439V95.0824H18.5204V93.5589ZM18.5204 92.0354H20.0439V93.5589H18.5204V92.0354ZM18.5204 90.5119H20.0439V92.0354H18.5204V90.5119ZM18.5204 88.9883H20.0439V90.5119H18.5204V88.9883ZM18.5204 87.4648H20.0439V88.9883H18.5204V87.4648ZM20.0439 87.4648H21.5674V88.9883H20.0439V87.4648ZM20.0439 85.9413H21.5674V87.4648H20.0439V85.9413ZM20.0439 84.4178H21.5674V85.9413H20.0439V84.4178ZM21.5674 84.4178H23.091V85.9413H21.5674V84.4178ZM21.5674 85.9413H23.091V87.4648H21.5674V85.9413ZM23.091 85.9413H24.6145V87.4648H23.091V85.9413ZM23.091 87.4648H24.6145V88.9883H23.091V87.4648ZM23.091 88.9883H24.6145V90.5119H23.091V88.9883ZM23.091 90.5119H24.6145V92.0354H23.091V90.5119ZM23.091 92.0354H24.6145V93.5589H23.091V92.0354ZM23.091 93.5589H24.6145V95.0824H23.091V93.5589ZM23.091 95.0824H24.6145V96.606H23.091V95.0824ZM23.091 96.606H24.6145V98.1295H23.091V96.606ZM21.5674 96.606H23.091V98.1295H21.5674V96.606ZM21.5674 95.0824H23.091V96.606H21.5674V95.0824ZM21.5674 93.5589H23.091V95.0824H21.5674V93.5589ZM21.5674 92.0354H23.091V93.5589H21.5674V92.0354ZM21.5674 90.5119H23.091V92.0354H21.5674V90.5119ZM21.5674 88.9883H23.091V90.5119H21.5674V88.9883ZM21.5674 87.4648H23.091V88.9883H21.5674V87.4648ZM20.0439 88.9883H21.5674V90.5119H20.0439V88.9883ZM20.0439 90.5119H21.5674V92.0354H20.0439V90.5119ZM20.0439 92.0354H21.5674V93.5589H20.0439V92.0354ZM20.0439 93.5589H21.5674V95.0824H20.0439V93.5589ZM20.0439 95.0824H21.5674V96.606H20.0439V95.0824ZM20.0439 96.606H21.5674V98.1295H20.0439V96.606ZM18.5204 70.7061H20.0439V72.2296H18.5204V70.7061ZM18.5204 72.2296H20.0439V73.7531H18.5204V72.2296ZM18.5204 75.2766H20.0439V76.8001H18.5204V75.2766ZM18.5204 76.8001H20.0439V78.3237H18.5204V76.8001ZM18.5204 78.3237H20.0439V79.8472H18.5204V78.3237ZM18.5204 79.8472H20.0439V81.3707H18.5204V79.8472ZM18.5204 81.3707H20.0439V82.8942H18.5204V81.3707ZM18.5204 82.8942H20.0439V84.4178H18.5204V82.8942ZM18.5204 84.4178H20.0439V85.9413H18.5204V84.4178ZM18.5204 85.9413H20.0439V87.4648H18.5204V85.9413ZM20.0439 79.8472H21.5674V81.3707H20.0439V79.8472ZM20.0439 78.3237H21.5674V79.8472H20.0439V78.3237ZM20.0439 76.8001H21.5674V78.3237H20.0439V76.8001ZM20.0439 75.2766H21.5674V76.8001H20.0439V75.2766ZM20.0439 73.7531H21.5674V75.2766H20.0439V73.7531ZM18.5204 73.7531H20.0439V75.2766H18.5204V73.7531ZM20.0439 70.7061H21.5674V72.2296H20.0439V70.7061ZM21.5674 70.7061H23.091V72.2296H21.5674V70.7061ZM21.5674 72.2296H23.091V73.7531H21.5674V72.2296ZM23.091 73.7531H24.6145V75.2766H23.091V73.7531ZM23.091 72.2296H24.6145V73.7531H23.091V72.2296ZM23.091 70.7061H24.6145V72.2296H23.091V70.7061ZM23.091 75.2766H24.6145V76.8001H23.091V75.2766ZM23.091 76.8001H24.6145V78.3237H23.091V76.8001ZM23.091 78.3237H24.6145V79.8472H23.091V78.3237ZM23.091 79.8472H24.6145V81.3707H23.091V79.8472ZM23.091 81.3707H24.6145V82.8942H23.091V81.3707ZM23.091 82.8942H24.6145V84.4178H23.091V82.8942ZM23.091 84.4178H24.6145V85.9413H23.091V84.4178ZM21.5674 82.8942H23.091V84.4178H21.5674V82.8942ZM21.5674 81.3707H23.091V82.8942H21.5674V81.3707ZM21.5674 79.8472H23.091V81.3707H21.5674V79.8472ZM20.0439 81.3707H21.5674V82.8942H20.0439V81.3707ZM20.0439 82.8942H21.5674V84.4178H20.0439V82.8942ZM21.5674 78.3237H23.091V79.8472H21.5674V78.3237ZM21.5674 73.7531H23.091V75.2766H21.5674V73.7531ZM21.5674 75.2766H23.091V76.8001H21.5674V75.2766ZM21.5674 76.8001H23.091V78.3237H21.5674V76.8001ZM20.0439 72.2296H21.5674V73.7531H20.0439V72.2296ZM24.6145 70.7061H26.138V72.2296H24.6145V70.7061ZM24.6145 72.2296H26.138V73.7531H24.6145V72.2296ZM24.6145 73.7531H26.138V75.2766H24.6145V73.7531ZM24.6145 75.2766H26.138V76.8001H24.6145V75.2766ZM26.138 75.2766H27.6615V76.8001H26.138V75.2766ZM27.6615 75.2766H29.1851V76.8001H27.6615V75.2766ZM29.1851 75.2766H30.7086V76.8001H29.1851V75.2766ZM29.1851 73.7531H30.7086V75.2766H29.1851V73.7531ZM29.1851 72.2296H30.7086V73.7531H29.1851V72.2296ZM29.1851 70.7061H30.7086V72.2296H29.1851V70.7061ZM27.6615 70.7061H29.1851V72.2296H27.6615V70.7061ZM26.138 70.7061H27.6615V72.2296H26.138V70.7061ZM26.138 72.2296H27.6615V73.7531H26.138V72.2296ZM27.6615 72.2296H29.1851V73.7531H27.6615V72.2296ZM27.6615 73.7531H29.1851V75.2766H27.6615V73.7531ZM26.138 73.7531H27.6615V75.2766H26.138V73.7531ZM16.9969 70.7061H18.5204V72.2296H16.9969V70.7061ZM15.4733 70.7061H16.9969V72.2296H15.4733V70.7061ZM13.9498 70.7061H15.4733V72.2296H13.9498V70.7061ZM12.4263 70.7061H13.9498V72.2296H12.4263V70.7061ZM12.4263 72.2296H13.9498V73.7531H12.4263V72.2296ZM12.4263 73.7531H13.9498V75.2766H12.4263V73.7531ZM13.9498 73.7531H15.4733V75.2766H13.9498V73.7531ZM15.4733 75.2766H16.9969V76.8001H15.4733V75.2766ZM13.9498 75.2766H15.4733V76.8001H13.9498V75.2766ZM12.4263 75.2766H13.9498V76.8001H12.4263V75.2766ZM16.9969 75.2766H18.5204V76.8001H16.9969V75.2766ZM16.9969 73.7531H18.5204V75.2766H16.9969V73.7531ZM16.9969 72.2296H18.5204V73.7531H16.9969V72.2296ZM15.4733 72.2296H16.9969V73.7531H15.4733V72.2296ZM15.4733 73.7531H16.9969V75.2766H15.4733V73.7531ZM13.9498 72.2296H15.4733V73.7531H13.9498V72.2296Z" fill="white"/>
<path d="M93.2117 27H94.7353V28.5235H93.2117V27ZM94.7353 27H96.2588V28.5235H94.7353V27ZM96.2588 27H97.7823V28.5235H96.2588V27ZM97.7823 27H99.3058V28.5235H97.7823V27ZM97.7823 28.5235H99.3058V30.047H97.7823V28.5235ZM97.7823 30.047H99.3058V31.5706H97.7823V30.047ZM97.7823 31.5706H99.3058V33.0941H97.7823V31.5706ZM96.2588 31.5706H97.7823V33.0941H96.2588V31.5706ZM96.2588 30.047H97.7823V31.5706H96.2588V30.047ZM94.7353 30.047H96.2588V31.5706H94.7353V30.047ZM94.7353 28.5235H96.2588V30.047H94.7353V28.5235ZM93.2117 28.5235H94.7353V30.047H93.2117V28.5235ZM96.2588 28.5235H97.7823V30.047H96.2588V28.5235ZM93.2117 30.047H94.7353V31.5706H93.2117V30.047ZM93.2117 31.5706H94.7353V33.0941H93.2117V31.5706ZM93.2117 33.0941H94.7353V34.6176H93.2117V33.0941ZM93.2117 34.6176H94.7353V36.1411H93.2117V34.6176ZM94.7353 34.6176H96.2588V36.1411H94.7353V34.6176ZM94.7353 33.0941H96.2588V34.6176H94.7353V33.0941ZM94.7353 31.5706H96.2588V33.0941H94.7353V31.5706ZM111.494 27H113.018V28.5235H111.494V27ZM109.97 27H111.494V28.5235H109.97V27ZM108.447 27H109.97V28.5235H108.447V27ZM106.923 27H108.447V28.5235H106.923V27ZM106.923 28.5235H108.447V30.047H106.923V28.5235ZM106.923 30.047H108.447V31.5706H106.923V30.047ZM106.923 31.5706H108.447V33.0941H106.923V31.5706ZM106.923 33.0941H108.447V34.6176H106.923V33.0941ZM108.447 33.0941H109.97V34.6176H108.447V33.0941ZM109.97 33.0941H111.494V34.6176H109.97V33.0941ZM111.494 33.0941H113.018V34.6176H111.494V33.0941ZM111.494 31.5706H113.018V33.0941H111.494V31.5706ZM111.494 30.047H113.018V31.5706H111.494V30.047ZM111.494 28.5235H113.018V30.047H111.494V28.5235ZM109.97 28.5235H111.494V30.047H109.97V28.5235ZM108.447 30.047H109.97V31.5706H108.447V30.047ZM108.447 31.5706H109.97V33.0941H108.447V31.5706ZM109.97 31.5706H111.494V33.0941H109.97V31.5706ZM109.97 30.047H111.494V31.5706H109.97V30.047ZM108.447 28.5235H109.97V30.047H108.447V28.5235ZM111.494 34.6176H113.018V36.1411H111.494V34.6176ZM109.97 34.6176H111.494V36.1411H109.97V34.6176ZM108.447 34.6176H109.97V36.1411H108.447V34.6176ZM106.923 34.6176H108.447V36.1411H106.923V34.6176ZM105.4 34.6176H106.923V36.1411H105.4V34.6176ZM105.4 33.0941H106.923V34.6176H105.4V33.0941ZM103.876 34.6176H105.4V36.1411H103.876V34.6176ZM103.876 36.1411H105.4V37.6647H103.876V36.1411ZM105.4 36.1411H106.923V37.6647H105.4V36.1411ZM106.923 36.1411H108.447V37.6647H106.923V36.1411ZM108.447 36.1411H109.97V37.6647H108.447V36.1411ZM109.97 36.1411H111.494V37.6647H109.97V36.1411ZM102.353 36.1411H103.876V37.6647H102.353V36.1411ZM100.829 36.1411H102.353V37.6647H100.829V36.1411ZM99.3058 36.1411H100.829V37.6647H99.3058V36.1411ZM97.7823 36.1411H99.3058V37.6647H97.7823V36.1411ZM96.2588 36.1411H97.7823V37.6647H96.2588V36.1411ZM94.7353 36.1411H96.2588V37.6647H94.7353V36.1411ZM96.2588 34.6176H97.7823V36.1411H96.2588V34.6176ZM96.2588 33.0941H97.7823V34.6176H96.2588V33.0941ZM97.7823 33.0941H99.3058V34.6176H97.7823V33.0941ZM99.3058 33.0941H100.829V34.6176H99.3058V33.0941ZM99.3058 34.6176H100.829V36.1411H99.3058V34.6176ZM100.829 34.6176H102.353V36.1411H100.829V34.6176ZM97.7823 34.6176H99.3058V36.1411H97.7823V34.6176ZM96.2588 37.6647H97.7823V39.1882H96.2588V37.6647ZM97.7823 37.6647H99.3058V39.1882H97.7823V37.6647ZM99.3058 37.6647H100.829V39.1882H99.3058V37.6647ZM100.829 37.6647H102.353V39.1882H100.829V37.6647ZM102.353 37.6647H103.876V39.1882H102.353V37.6647ZM103.876 37.6647H105.4V39.1882H103.876V37.6647ZM105.4 37.6647H106.923V39.1882H105.4V37.6647ZM106.923 37.6647H108.447V39.1882H106.923V37.6647ZM108.447 37.6647H109.97V39.1882H108.447V37.6647ZM106.923 39.1882H108.447V40.7117H106.923V39.1882ZM105.4 39.1882H106.923V40.7117H105.4V39.1882ZM103.876 39.1882H105.4V40.7117H103.876V39.1882ZM102.353 39.1882H103.876V40.7117H102.353V39.1882ZM100.829 39.1882H102.353V40.7117H100.829V39.1882ZM99.3058 39.1882H100.829V40.7117H99.3058V39.1882ZM97.7823 39.1882H99.3058V40.7117H97.7823V39.1882ZM99.3058 40.7117H100.829V42.2352H99.3058V40.7117ZM100.829 40.7117H102.353V42.2352H100.829V40.7117ZM102.353 40.7117H103.876V42.2352H102.353V40.7117ZM103.876 40.7117H105.4V42.2352H103.876V40.7117ZM105.4 40.7117H106.923V42.2352H105.4V40.7117ZM106.923 42.2352H108.447V43.7588H106.923V42.2352ZM105.4 42.2352H106.923V43.7588H105.4V42.2352ZM103.876 42.2352H105.4V43.7588H103.876V42.2352ZM102.353 42.2352H103.876V43.7588H102.353V42.2352ZM100.829 42.2352H102.353V43.7588H100.829V42.2352ZM99.3058 42.2352H100.829V43.7588H99.3058V42.2352ZM97.7823 42.2352H99.3058V43.7588H97.7823V42.2352ZM97.7823 43.7588H99.3058V45.2823H97.7823V43.7588ZM96.2588 43.7588H97.7823V45.2823H96.2588V43.7588ZM99.3058 43.7588H100.829V45.2823H99.3058V43.7588ZM100.829 45.2823H102.353V46.8058H100.829V45.2823ZM102.353 45.2823H103.876V46.8058H102.353V45.2823ZM103.876 45.2823H105.4V46.8058H103.876V45.2823ZM105.4 45.2823H106.923V46.8058H105.4V45.2823ZM106.923 45.2823H108.447V46.8058H106.923V45.2823ZM106.923 43.7588H108.447V45.2823H106.923V43.7588ZM108.447 43.7588H109.97V45.2823H108.447V43.7588ZM105.4 43.7588H106.923V45.2823H105.4V43.7588ZM103.876 43.7588H105.4V45.2823H103.876V43.7588ZM102.353 43.7588H103.876V45.2823H102.353V43.7588ZM100.829 43.7588H102.353V45.2823H100.829V43.7588ZM108.447 45.2823H109.97V46.8058H108.447V45.2823ZM109.97 45.2823H111.494V46.8058H109.97V45.2823ZM109.97 46.8058H111.494V48.3293H109.97V46.8058ZM111.494 46.8058H113.018V48.3293H111.494V46.8058ZM108.447 46.8058H109.97V48.3293H108.447V46.8058ZM106.923 46.8058H108.447V48.3293H106.923V46.8058ZM105.4 46.8058H106.923V48.3293H105.4V46.8058ZM103.876 46.8058H105.4V48.3293H103.876V46.8058ZM105.4 48.3293H106.923V49.8529H105.4V48.3293ZM106.923 48.3293H108.447V49.8529H106.923V48.3293ZM108.447 48.3293H109.97V49.8529H108.447V48.3293ZM109.97 48.3293H111.494V49.8529H109.97V48.3293ZM111.494 48.3293H113.018V49.8529H111.494V48.3293ZM111.494 51.3764H113.018V52.8999H111.494V51.3764ZM111.494 52.8999H113.018V54.4234H111.494V52.8999ZM111.494 54.4234H113.018V55.9469H111.494V54.4234ZM111.494 55.9469H113.018V57.4705H111.494V55.9469ZM109.97 51.3764H111.494V52.8999H109.97V51.3764ZM109.97 49.8529H111.494V51.3764H109.97V49.8529ZM108.447 49.8529H109.97V51.3764H108.447V49.8529ZM111.494 49.8529H113.018V51.3764H111.494V49.8529ZM106.923 49.8529H108.447V51.3764H106.923V49.8529ZM106.923 51.3764H108.447V52.8999H106.923V51.3764ZM106.923 52.8999H108.447V54.4234H106.923V52.8999ZM106.923 54.4234H108.447V55.9469H106.923V54.4234ZM108.447 54.4234H109.97V55.9469H108.447V54.4234ZM108.447 55.9469H109.97V57.4705H108.447V55.9469ZM109.97 55.9469H111.494V57.4705H109.97V55.9469ZM106.923 55.9469H108.447V57.4705H106.923V55.9469ZM109.97 54.4234H111.494V55.9469H109.97V54.4234ZM109.97 52.8999H111.494V54.4234H109.97V52.8999ZM108.447 52.8999H109.97V54.4234H108.447V52.8999ZM108.447 51.3764H109.97V52.8999H108.447V51.3764ZM93.2117 55.9469H94.7353V57.4705H93.2117V55.9469ZM93.2117 54.4234H94.7353V55.9469H93.2117V54.4234ZM93.2117 52.8999H94.7353V54.4234H93.2117V52.8999ZM93.2117 51.3764H94.7353V52.8999H93.2117V51.3764ZM93.2117 49.8529H94.7353V51.3764H93.2117V49.8529ZM93.2117 48.3293H94.7353V49.8529H93.2117V48.3293ZM93.2117 46.8058H94.7353V48.3293H93.2117V46.8058ZM94.7353 46.8058H96.2588V48.3293H94.7353V46.8058ZM94.7353 45.2823H96.2588V46.8058H94.7353V45.2823ZM96.2588 45.2823H97.7823V46.8058H96.2588V45.2823ZM97.7823 45.2823H99.3058V46.8058H97.7823V45.2823ZM99.3058 45.2823H100.829V46.8058H99.3058V45.2823ZM100.829 46.8058H102.353V48.3293H100.829V46.8058ZM99.3058 46.8058H100.829V48.3293H99.3058V46.8058ZM99.3058 48.3293H100.829V49.8529H99.3058V48.3293ZM97.7823 48.3293H99.3058V49.8529H97.7823V48.3293ZM97.7823 49.8529H99.3058V51.3764H97.7823V49.8529ZM97.7823 51.3764H99.3058V52.8999H97.7823V51.3764ZM97.7823 52.8999H99.3058V54.4234H97.7823V52.8999ZM97.7823 54.4234H99.3058V55.9469H97.7823V54.4234ZM96.2588 54.4234H97.7823V55.9469H96.2588V54.4234ZM96.2588 55.9469H97.7823V57.4705H96.2588V55.9469ZM94.7353 55.9469H96.2588V57.4705H94.7353V55.9469ZM97.7823 55.9469H99.3058V57.4705H97.7823V55.9469ZM94.7353 54.4234H96.2588V55.9469H94.7353V54.4234ZM94.7353 52.8999H96.2588V54.4234H94.7353V52.8999ZM94.7353 51.3764H96.2588V52.8999H94.7353V51.3764ZM94.7353 49.8529H96.2588V51.3764H94.7353V49.8529ZM96.2588 49.8529H97.7823V51.3764H96.2588V49.8529ZM96.2588 48.3293H97.7823V49.8529H96.2588V48.3293ZM96.2588 46.8058H97.7823V48.3293H96.2588V46.8058ZM97.7823 46.8058H99.3058V48.3293H97.7823V46.8058ZM94.7353 48.3293H96.2588V49.8529H94.7353V48.3293ZM96.2588 51.3764H97.7823V52.8999H96.2588V51.3764ZM96.2588 52.8999H97.7823V54.4234H96.2588V52.8999Z" fill="white"/>
<path d="M71.8645 55.9469H73.3881V57.4705H71.8645V55.9469ZM73.3881 55.9469H74.9116V57.4705H73.3881V55.9469ZM74.9116 55.9469H76.4351V57.4705H74.9116V55.9469ZM76.4351 55.9469H77.9586V57.4705H76.4351V55.9469ZM76.4351 54.4234H77.9586V55.9469H76.4351V54.4234ZM74.9116 54.4234H76.4351V55.9469H74.9116V54.4234ZM73.3881 54.4234H74.9116V55.9469H73.3881V54.4234ZM71.8645 54.4234H73.3881V55.9469H71.8645V54.4234ZM71.8645 52.8999H73.3881V54.4234H71.8645V52.8999ZM71.8645 51.3764H73.3881V52.8999H71.8645V51.3764ZM71.8645 49.8529H73.3881V51.3764H71.8645V49.8529ZM71.8645 48.3293H73.3881V49.8529H71.8645V48.3293ZM71.8645 46.8058H73.3881V48.3293H71.8645V46.8058ZM71.8645 45.2823H73.3881V46.8058H71.8645V45.2823ZM71.8645 43.7588H73.3881V45.2823H71.8645V43.7588ZM73.3881 43.7588H74.9116V45.2823H73.3881V43.7588ZM73.3881 42.2352H74.9116V43.7588H73.3881V42.2352ZM73.3881 40.7117H74.9116V42.2352H73.3881V40.7117ZM74.9116 40.7117H76.4351V42.2352H74.9116V40.7117ZM74.9116 42.2352H76.4351V43.7588H74.9116V42.2352ZM76.4351 42.2352H77.9586V43.7588H76.4351V42.2352ZM76.4351 43.7588H77.9586V45.2823H76.4351V43.7588ZM76.4351 45.2823H77.9586V46.8058H76.4351V45.2823ZM76.4351 46.8058H77.9586V48.3293H76.4351V46.8058ZM76.4351 48.3293H77.9586V49.8529H76.4351V48.3293ZM76.4351 49.8529H77.9586V51.3764H76.4351V49.8529ZM76.4351 51.3764H77.9586V52.8999H76.4351V51.3764ZM76.4351 52.8999H77.9586V54.4234H76.4351V52.8999ZM74.9116 52.8999H76.4351V54.4234H74.9116V52.8999ZM74.9116 51.3764H76.4351V52.8999H74.9116V51.3764ZM74.9116 49.8529H76.4351V51.3764H74.9116V49.8529ZM74.9116 48.3293H76.4351V49.8529H74.9116V48.3293ZM74.9116 46.8058H76.4351V48.3293H74.9116V46.8058ZM74.9116 45.2823H76.4351V46.8058H74.9116V45.2823ZM74.9116 43.7588H76.4351V45.2823H74.9116V43.7588ZM73.3881 45.2823H74.9116V46.8058H73.3881V45.2823ZM73.3881 46.8058H74.9116V48.3293H73.3881V46.8058ZM73.3881 48.3293H74.9116V49.8529H73.3881V48.3293ZM73.3881 49.8529H74.9116V51.3764H73.3881V49.8529ZM73.3881 51.3764H74.9116V52.8999H73.3881V51.3764ZM73.3881 52.8999H74.9116V54.4234H73.3881V52.8999ZM71.8645 27H73.3881V28.5235H71.8645V27ZM71.8645 28.5235H73.3881V30.047H71.8645V28.5235ZM71.8645 31.5706H73.3881V33.0941H71.8645V31.5706ZM71.8645 33.0941H73.3881V34.6176H71.8645V33.0941ZM71.8645 34.6176H73.3881V36.1411H71.8645V34.6176ZM71.8645 36.1411H73.3881V37.6647H71.8645V36.1411ZM71.8645 37.6647H73.3881V39.1882H71.8645V37.6647ZM71.8645 39.1882H73.3881V40.7117H71.8645V39.1882ZM71.8645 40.7117H73.3881V42.2352H71.8645V40.7117ZM71.8645 42.2352H73.3881V43.7588H71.8645V42.2352ZM73.3881 36.1411H74.9116V37.6647H73.3881V36.1411ZM73.3881 34.6176H74.9116V36.1411H73.3881V34.6176ZM73.3881 33.0941H74.9116V34.6176H73.3881V33.0941ZM73.3881 31.5706H74.9116V33.0941H73.3881V31.5706ZM73.3881 30.047H74.9116V31.5706H73.3881V30.047ZM71.8645 30.047H73.3881V31.5706H71.8645V30.047ZM73.3881 27H74.9116V28.5235H73.3881V27ZM74.9116 27H76.4351V28.5235H74.9116V27ZM74.9116 28.5235H76.4351V30.047H74.9116V28.5235ZM76.4351 30.047H77.9586V31.5706H76.4351V30.047ZM76.4351 28.5235H77.9586V30.047H76.4351V28.5235ZM76.4351 27H77.9586V28.5235H76.4351V27ZM76.4351 31.5706H77.9586V33.0941H76.4351V31.5706ZM76.4351 33.0941H77.9586V34.6176H76.4351V33.0941ZM76.4351 34.6176H77.9586V36.1411H76.4351V34.6176ZM76.4351 36.1411H77.9586V37.6647H76.4351V36.1411ZM76.4351 37.6647H77.9586V39.1882H76.4351V37.6647ZM76.4351 39.1882H77.9586V40.7117H76.4351V39.1882ZM76.4351 40.7117H77.9586V42.2352H76.4351V40.7117ZM74.9116 39.1882H76.4351V40.7117H74.9116V39.1882ZM74.9116 37.6647H76.4351V39.1882H74.9116V37.6647ZM74.9116 36.1411H76.4351V37.6647H74.9116V36.1411ZM73.3881 37.6647H74.9116V39.1882H73.3881V37.6647ZM73.3881 39.1882H74.9116V40.7117H73.3881V39.1882ZM74.9116 34.6176H76.4351V36.1411H74.9116V34.6176ZM74.9116 30.047H76.4351V31.5706H74.9116V30.047ZM74.9116 31.5706H76.4351V33.0941H74.9116V31.5706ZM74.9116 33.0941H76.4351V34.6176H74.9116V33.0941ZM73.3881 28.5235H74.9116V30.047H73.3881V28.5235ZM77.9586 27H79.4822V28.5235H77.9586V27ZM79.4822 27H81.0057V28.5235H79.4822V27ZM81.0057 27H82.5292V28.5235H81.0057V27ZM82.5292 27H84.0527V28.5235H82.5292V27ZM84.0527 27H85.5763V28.5235H84.0527V27ZM84.0527 28.5235H85.5763V30.047H84.0527V28.5235ZM84.0527 30.047H85.5763V31.5706H84.0527V30.047ZM84.0527 31.5706H85.5763V33.0941H84.0527V31.5706ZM82.5292 31.5706H84.0527V33.0941H82.5292V31.5706ZM81.0057 31.5706H82.5292V33.0941H81.0057V31.5706ZM79.4822 31.5706H81.0057V33.0941H79.4822V31.5706ZM77.9586 31.5706H79.4822V33.0941H77.9586V31.5706ZM77.9586 30.047H79.4822V31.5706H77.9586V30.047ZM77.9586 28.5235H79.4822V30.047H77.9586V28.5235ZM79.4822 28.5235H81.0057V30.047H79.4822V28.5235ZM81.0057 28.5235H82.5292V30.047H81.0057V28.5235ZM82.5292 28.5235H84.0527V30.047H82.5292V28.5235ZM82.5292 30.047H84.0527V31.5706H82.5292V30.047ZM81.0057 30.047H82.5292V31.5706H81.0057V30.047ZM79.4822 30.047H81.0057V31.5706H79.4822V30.047ZM85.5763 27H87.0998V28.5235H85.5763V27ZM87.0998 27H88.6233V28.5235H87.0998V27ZM88.6233 27H90.1468V28.5235H88.6233V27ZM88.6233 28.5235H90.1468V30.047H88.6233V28.5235ZM88.6233 30.047H90.1468V31.5706H88.6233V30.047ZM88.6233 31.5706H90.1468V33.0941H88.6233V31.5706ZM87.0998 31.5706H88.6233V33.0941H87.0998V31.5706ZM85.5763 31.5706H87.0998V33.0941H85.5763V31.5706ZM85.5763 30.047H87.0998V31.5706H85.5763V30.047ZM85.5763 28.5235H87.0998V30.047H85.5763V28.5235ZM87.0998 28.5235H88.6233V30.047H87.0998V28.5235ZM87.0998 30.047H88.6233V31.5706H87.0998V30.047ZM77.9586 40.7117H79.4822V42.2352H77.9586V40.7117ZM77.9586 39.1882H79.4822V40.7117H77.9586V39.1882ZM77.9586 42.2352H79.4822V43.7588H77.9586V42.2352ZM77.9586 43.7588H79.4822V45.2823H77.9586V43.7588ZM79.4822 43.7588H81.0057V45.2823H79.4822V43.7588ZM81.0057 43.7588H82.5292V45.2823H81.0057V43.7588ZM82.5292 43.7588H84.0527V45.2823H82.5292V43.7588ZM84.0527 43.7588H85.5763V45.2823H84.0527V43.7588ZM84.0527 42.2352H85.5763V43.7588H84.0527V42.2352ZM84.0527 40.7117H85.5763V42.2352H84.0527V40.7117ZM84.0527 39.1882H85.5763V40.7117H84.0527V39.1882ZM82.5292 39.1882H84.0527V40.7117H82.5292V39.1882ZM81.0057 39.1882H82.5292V40.7117H81.0057V39.1882ZM79.4822 39.1882H81.0057V40.7117H79.4822V39.1882ZM79.4822 40.7117H81.0057V42.2352H79.4822V40.7117ZM79.4822 42.2352H81.0057V43.7588H79.4822V42.2352ZM81.0057 42.2352H82.5292V43.7588H81.0057V42.2352ZM82.5292 42.2352H84.0527V43.7588H82.5292V42.2352ZM82.5292 40.7117H84.0527V42.2352H82.5292V40.7117ZM81.0057 40.7117H82.5292V42.2352H81.0057V40.7117ZM85.5763 39.1882H87.0998V40.7117H85.5763V39.1882ZM85.5763 40.7117H87.0998V42.2352H85.5763V40.7117ZM85.5763 42.2352H87.0998V43.7588H85.5763V42.2352ZM85.5763 43.7588H87.0998V45.2823H85.5763V43.7588Z" fill="white"/>
<path d="M47.4822 28.5235H49.0057V30.047H47.4822V28.5235ZM49.0057 28.5235H50.5293V30.047H49.0057V28.5235ZM49.0057 27H50.5293V28.5235H49.0057V27ZM47.4822 27H49.0057V28.5235H47.4822V27ZM50.5293 27H52.0528V28.5235H50.5293V27ZM50.5293 28.5235H52.0528V30.047H50.5293V28.5235ZM52.0528 28.5235H53.5763V30.047H52.0528V28.5235ZM52.0528 30.047H53.5763V31.5706H52.0528V30.047ZM52.0528 27H53.5763V28.5235H52.0528V27ZM52.0528 31.5706H53.5763V33.0941H52.0528V31.5706ZM52.0528 34.6176H53.5763V36.1411H52.0528V34.6176ZM52.0528 36.1411H53.5763V37.6647H52.0528V36.1411ZM52.0528 37.6647H53.5763V39.1882H52.0528V37.6647ZM52.0528 39.1882H53.5763V40.7117H52.0528V39.1882ZM52.0528 40.7117H53.5763V42.2352H52.0528V40.7117ZM52.0528 42.2352H53.5763V43.7588H52.0528V42.2352ZM52.0528 43.7588H53.5763V45.2823H52.0528V43.7588ZM52.0528 45.2823H53.5763V46.8058H52.0528V45.2823ZM52.0528 46.8058H53.5763V48.3293H52.0528V46.8058ZM52.0528 33.0941H53.5763V34.6176H52.0528V33.0941ZM50.5293 30.047H52.0528V31.5706H50.5293V30.047ZM49.0057 30.047H50.5293V31.5706H49.0057V30.047ZM49.0057 31.5706H50.5293V33.0941H49.0057V31.5706ZM49.0057 33.0941H50.5293V34.6176H49.0057V33.0941ZM50.5293 33.0941H52.0528V34.6176H50.5293V33.0941ZM50.5293 34.6176H52.0528V36.1411H50.5293V34.6176ZM50.5293 36.1411H52.0528V37.6647H50.5293V36.1411ZM50.5293 37.6647H52.0528V39.1882H50.5293V37.6647ZM50.5293 39.1882H52.0528V40.7117H50.5293V39.1882ZM50.5293 40.7117H52.0528V42.2352H50.5293V40.7117ZM50.5293 42.2352H52.0528V43.7588H50.5293V42.2352ZM50.5293 43.7588H52.0528V45.2823H50.5293V43.7588ZM50.5293 31.5706H52.0528V33.0941H50.5293V31.5706ZM47.4822 30.047H49.0057V31.5706H47.4822V30.047ZM47.4822 31.5706H49.0057V33.0941H47.4822V31.5706ZM47.4822 33.0941H49.0057V34.6176H47.4822V33.0941ZM47.4822 34.6176H49.0057V36.1411H47.4822V34.6176ZM47.4822 36.1411H49.0057V37.6647H47.4822V36.1411ZM47.4822 37.6647H49.0057V39.1882H47.4822V37.6647ZM47.4822 39.1882H49.0057V40.7117H47.4822V39.1882ZM47.4822 40.7117H49.0057V42.2352H47.4822V40.7117ZM47.4822 42.2352H49.0057V43.7588H47.4822V42.2352ZM47.4822 43.7588H49.0057V45.2823H47.4822V43.7588ZM47.4822 45.2823H49.0057V46.8058H47.4822V45.2823ZM49.0057 45.2823H50.5293V46.8058H49.0057V45.2823ZM49.0057 46.8058H50.5293V48.3293H49.0057V46.8058ZM49.0057 43.7588H50.5293V45.2823H49.0057V43.7588ZM49.0057 39.1882H50.5293V40.7117H49.0057V39.1882ZM49.0057 37.6647H50.5293V39.1882H49.0057V37.6647ZM49.0057 36.1411H50.5293V37.6647H49.0057V36.1411ZM49.0057 34.6176H50.5293V36.1411H49.0057V34.6176ZM49.0057 40.7117H50.5293V42.2352H49.0057V40.7117ZM49.0057 42.2352H50.5293V43.7588H49.0057V42.2352ZM47.4822 46.8058H49.0057V48.3293H47.4822V46.8058ZM47.4822 48.3293H49.0057V49.8529H47.4822V48.3293ZM49.0057 48.3293H50.5293V49.8529H49.0057V48.3293ZM50.5293 46.8058H52.0528V48.3293H50.5293V46.8058ZM50.5293 45.2823H52.0528V46.8058H50.5293V45.2823ZM53.5763 46.8058H55.0998V48.3293H53.5763V46.8058ZM53.5763 48.3293H55.0998V49.8529H53.5763V48.3293ZM52.0528 48.3293H53.5763V49.8529H52.0528V48.3293ZM50.5293 48.3293H52.0528V49.8529H50.5293V48.3293ZM49.0057 49.8529H50.5293V51.3764H49.0057V49.8529ZM50.5293 49.8529H52.0528V51.3764H50.5293V49.8529ZM52.0528 49.8529H53.5763V51.3764H52.0528V49.8529ZM53.5763 49.8529H55.0998V51.3764H53.5763V49.8529ZM55.0998 49.8529H56.6234V51.3764H55.0998V49.8529ZM55.0998 48.3293H56.6234V49.8529H55.0998V48.3293ZM53.5763 51.3764H55.0998V52.8999H53.5763V51.3764ZM52.0528 51.3764H53.5763V52.8999H52.0528V51.3764ZM50.5293 51.3764H52.0528V52.8999H50.5293V51.3764ZM55.0998 51.3764H56.6234V52.8999H55.0998V51.3764ZM56.6234 51.3764H58.1469V52.8999H56.6234V51.3764ZM56.6234 49.8529H58.1469V51.3764H56.6234V49.8529ZM55.0998 55.9469H56.6234V57.4705H55.0998V55.9469ZM56.6234 55.9469H58.1469V57.4705H56.6234V55.9469ZM58.1469 55.9469H59.6704V57.4705H58.1469V55.9469ZM58.1469 54.4234H59.6704V55.9469H58.1469V54.4234ZM59.6704 54.4234H61.1939V55.9469H59.6704V54.4234ZM56.6234 54.4234H58.1469V55.9469H56.6234V54.4234ZM55.0998 54.4234H56.6234V55.9469H55.0998V54.4234ZM53.5763 54.4234H55.0998V55.9469H53.5763V54.4234ZM53.5763 52.8999H55.0998V54.4234H53.5763V52.8999ZM52.0528 52.8999H53.5763V54.4234H52.0528V52.8999ZM55.0998 52.8999H56.6234V54.4234H55.0998V52.8999ZM56.6234 52.8999H58.1469V54.4234H56.6234V52.8999ZM58.1469 52.8999H59.6704V54.4234H58.1469V52.8999ZM59.6704 52.8999H61.1939V54.4234H59.6704V52.8999ZM61.1939 52.8999H62.7174V54.4234H61.1939V52.8999ZM61.1939 51.3764H62.7174V52.8999H61.1939V51.3764ZM62.7174 51.3764H64.241V52.8999H62.7174V51.3764ZM64.241 49.8529H65.7645V51.3764H64.241V49.8529ZM64.241 48.3293H65.7645V49.8529H64.241V48.3293ZM65.7645 48.3293H67.288V49.8529H65.7645V48.3293ZM62.7174 48.3293H64.241V49.8529H62.7174V48.3293ZM62.7174 49.8529H64.241V51.3764H62.7174V49.8529ZM61.1939 49.8529H62.7174V51.3764H61.1939V49.8529ZM59.6704 49.8529H61.1939V51.3764H59.6704V49.8529ZM59.6704 51.3764H61.1939V52.8999H59.6704V51.3764ZM58.1469 51.3764H59.6704V52.8999H58.1469V51.3764ZM58.1469 49.8529H59.6704V51.3764H58.1469V49.8529ZM58.1469 48.3293H59.6704V49.8529H58.1469V48.3293ZM59.6704 48.3293H61.1939V49.8529H59.6704V48.3293ZM59.6704 46.8058H61.1939V48.3293H59.6704V46.8058ZM61.1939 48.3293H62.7174V49.8529H61.1939V48.3293ZM61.1939 46.8058H62.7174V48.3293H61.1939V46.8058ZM62.7174 46.8058H64.241V48.3293H62.7174V46.8058ZM64.241 46.8058H65.7645V48.3293H64.241V46.8058ZM65.7645 46.8058H67.288V48.3293H65.7645V46.8058ZM65.7645 45.2823H67.288V46.8058H65.7645V45.2823ZM64.241 45.2823H65.7645V46.8058H64.241V45.2823ZM62.7174 45.2823H64.241V46.8058H62.7174V45.2823ZM61.1939 45.2823H62.7174V46.8058H61.1939V45.2823ZM61.1939 43.7588H62.7174V45.2823H61.1939V43.7588ZM62.7174 43.7588H64.241V45.2823H62.7174V43.7588ZM64.241 43.7588H65.7645V45.2823H64.241V43.7588ZM65.7645 43.7588H67.288V45.2823H65.7645V43.7588ZM65.7645 42.2352H67.288V43.7588H65.7645V42.2352ZM64.241 42.2352H65.7645V43.7588H64.241V42.2352ZM62.7174 42.2352H64.241V43.7588H62.7174V42.2352ZM61.1939 42.2352H62.7174V43.7588H61.1939V42.2352ZM65.7645 40.7117H67.288V42.2352H65.7645V40.7117ZM64.241 40.7117H65.7645V42.2352H64.241V40.7117ZM62.7174 40.7117H64.241V42.2352H62.7174V40.7117ZM61.1939 40.7117H62.7174V42.2352H61.1939V40.7117ZM61.1939 39.1882H62.7174V40.7117H61.1939V39.1882ZM62.7174 39.1882H64.241V40.7117H62.7174V39.1882ZM64.241 39.1882H65.7645V40.7117H64.241V39.1882ZM65.7645 39.1882H67.288V40.7117H65.7645V39.1882ZM65.7645 37.6647H67.288V39.1882H65.7645V37.6647ZM64.241 37.6647H65.7645V39.1882H64.241V37.6647ZM62.7174 37.6647H64.241V39.1882H62.7174V37.6647ZM61.1939 37.6647H62.7174V39.1882H61.1939V37.6647ZM65.7645 36.1411H67.288V37.6647H65.7645V36.1411ZM64.241 36.1411H65.7645V37.6647H64.241V36.1411ZM62.7174 36.1411H64.241V37.6647H62.7174V36.1411ZM61.1939 36.1411H62.7174V37.6647H61.1939V36.1411ZM61.1939 34.6176H62.7174V36.1411H61.1939V34.6176ZM62.7174 34.6176H64.241V36.1411H62.7174V34.6176ZM64.241 34.6176H65.7645V36.1411H64.241V34.6176ZM65.7645 34.6176H67.288V36.1411H65.7645V34.6176ZM65.7645 33.0941H67.288V34.6176H65.7645V33.0941ZM64.241 33.0941H65.7645V34.6176H64.241V33.0941ZM62.7174 33.0941H64.241V34.6176H62.7174V33.0941ZM61.1939 33.0941H62.7174V34.6176H61.1939V33.0941ZM61.1939 31.5706H62.7174V33.0941H61.1939V31.5706ZM62.7174 31.5706H64.241V33.0941H62.7174V31.5706ZM64.241 31.5706H65.7645V33.0941H64.241V31.5706ZM65.7645 31.5706H67.288V33.0941H65.7645V31.5706ZM65.7645 30.047H67.288V31.5706H65.7645V30.047ZM64.241 30.047H65.7645V31.5706H64.241V30.047ZM62.7174 30.047H64.241V31.5706H62.7174V30.047ZM61.1939 30.047H62.7174V31.5706H61.1939V30.047ZM61.1939 27H62.7174V28.5235H61.1939V27ZM62.7174 27H64.241V28.5235H62.7174V27ZM64.241 27H65.7645V28.5235H64.241V27ZM65.7645 27H67.288V28.5235H65.7645V27ZM65.7645 28.5235H67.288V30.047H65.7645V28.5235ZM64.241 28.5235H65.7645V30.047H64.241V28.5235ZM62.7174 28.5235H64.241V30.047H62.7174V28.5235ZM61.1939 28.5235H62.7174V30.047H61.1939V28.5235Z" fill="white"/>
<path d="M41.3822 51.3764H42.9057V52.8999H41.3822V51.3764ZM39.8586 51.3764H41.3822V52.8999H39.8586V51.3764ZM38.3351 51.3764H39.8586V52.8999H38.3351V51.3764ZM38.3351 52.8999H39.8586V54.4234H38.3351V52.8999ZM39.8586 52.8999H41.3822V54.4234H39.8586V52.8999ZM38.3351 54.4234H39.8586V55.9469H38.3351V54.4234ZM36.8116 54.4234H38.3351V55.9469H36.8116V54.4234ZM39.8586 54.4234H41.3822V55.9469H39.8586V54.4234ZM36.8116 55.9469H38.3351V57.4705H36.8116V55.9469ZM35.2881 55.9469H36.8116V57.4705H35.2881V55.9469ZM33.7645 55.9469H35.2881V57.4705H33.7645V55.9469ZM32.241 55.9469H33.7645V57.4705H32.241V55.9469ZM30.7175 55.9469H32.241V57.4705H30.7175V55.9469ZM29.194 55.9469H30.7175V57.4705H29.194V55.9469ZM27.6705 55.9469H29.194V57.4705H27.6705V55.9469ZM27.6705 54.4234H29.194V55.9469H27.6705V54.4234ZM26.1469 54.4234H27.6705V55.9469H26.1469V54.4234ZM24.6234 54.4234H26.1469V55.9469H24.6234V54.4234ZM24.6234 52.8999H26.1469V54.4234H24.6234V52.8999ZM26.1469 52.8999H27.6705V54.4234H26.1469V52.8999ZM27.6705 52.8999H29.194V54.4234H27.6705V52.8999ZM29.194 52.8999H30.7175V54.4234H29.194V52.8999ZM30.7175 52.8999H32.241V54.4234H30.7175V52.8999ZM32.241 52.8999H33.7645V54.4234H32.241V52.8999ZM33.7645 52.8999H35.2881V54.4234H33.7645V52.8999ZM35.2881 52.8999H36.8116V54.4234H35.2881V52.8999ZM36.8116 52.8999H38.3351V54.4234H36.8116V52.8999ZM35.2881 54.4234H36.8116V55.9469H35.2881V54.4234ZM33.7645 54.4234H35.2881V55.9469H33.7645V54.4234ZM32.241 54.4234H33.7645V55.9469H32.241V54.4234ZM30.7175 54.4234H32.241V55.9469H30.7175V54.4234ZM29.194 54.4234H30.7175V55.9469H29.194V54.4234ZM26.1469 51.3764H27.6705V52.8999H26.1469V51.3764ZM24.6234 51.3764H26.1469V52.8999H24.6234V51.3764ZM23.0999 51.3764H24.6234V52.8999H23.0999V51.3764ZM26.1469 49.8529H27.6705V51.3764H26.1469V49.8529ZM27.6705 49.8529H29.194V51.3764H27.6705V49.8529ZM29.194 49.8529H30.7175V51.3764H29.194V49.8529ZM29.194 51.3764H30.7175V52.8999H29.194V51.3764ZM27.6705 51.3764H29.194V52.8999H27.6705V51.3764ZM24.6234 49.8529H26.1469V51.3764H24.6234V49.8529ZM24.6234 48.3293H26.1469V49.8529H24.6234V48.3293ZM23.0999 48.3293H24.6234V49.8529H23.0999V48.3293ZM23.0999 46.8058H24.6234V48.3293H23.0999V46.8058ZM23.0999 49.8529H24.6234V51.3764H23.0999V49.8529ZM23.0999 45.2823H24.6234V46.8058H23.0999V45.2823ZM24.6234 45.2823H26.1469V46.8058H24.6234V45.2823ZM26.1469 45.2823H27.6705V46.8058H26.1469V45.2823ZM27.6705 45.2823H29.194V46.8058H27.6705V45.2823ZM27.6705 46.8058H29.194V48.3293H27.6705V46.8058ZM27.6705 48.3293H29.194V49.8529H27.6705V48.3293ZM26.1469 46.8058H27.6705V48.3293H26.1469V46.8058ZM24.6234 46.8058H26.1469V48.3293H24.6234V46.8058ZM26.1469 48.3293H27.6705V49.8529H26.1469V48.3293ZM30.7175 51.3764H32.241V52.8999H30.7175V51.3764ZM32.241 51.3764H33.7645V52.8999H32.241V51.3764ZM33.7645 51.3764H35.2881V52.8999H33.7645V51.3764ZM35.2881 51.3764H36.8116V52.8999H35.2881V51.3764ZM36.8116 51.3764H38.3351V52.8999H36.8116V51.3764ZM36.8116 49.8529H38.3351V51.3764H36.8116V49.8529ZM35.2881 49.8529H36.8116V51.3764H35.2881V49.8529ZM38.3351 49.8529H39.8586V51.3764H38.3351V49.8529ZM39.8586 49.8529H41.3822V51.3764H39.8586V49.8529ZM39.8586 48.3293H41.3822V49.8529H39.8586V48.3293ZM41.3822 48.3293H42.9057V49.8529H41.3822V48.3293ZM41.3822 46.8058H42.9057V48.3293H41.3822V46.8058ZM41.3822 49.8529H42.9057V51.3764H41.3822V49.8529ZM36.8116 46.8058H38.3351V48.3293H36.8116V46.8058ZM36.8116 48.3293H38.3351V49.8529H36.8116V48.3293ZM38.3351 48.3293H39.8586V49.8529H38.3351V48.3293ZM38.3351 46.8058H39.8586V48.3293H38.3351V46.8058ZM39.8586 46.8058H41.3822V48.3293H39.8586V46.8058ZM41.3822 36.1411H42.9057V37.6647H41.3822V36.1411ZM41.3822 34.6176H42.9057V36.1411H41.3822V34.6176ZM41.3822 33.0941H42.9057V34.6176H41.3822V33.0941ZM41.3822 31.5706H42.9057V33.0941H41.3822V31.5706ZM39.8586 31.5706H41.3822V33.0941H39.8586V31.5706ZM39.8586 30.047H41.3822V31.5706H39.8586V30.047ZM39.8586 28.5235H41.3822V30.047H39.8586V28.5235ZM38.3351 28.5235H39.8586V30.047H38.3351V28.5235ZM36.8116 28.5235H38.3351V30.047H36.8116V28.5235ZM38.3351 36.1411H39.8586V37.6647H38.3351V36.1411ZM38.3351 34.6176H39.8586V36.1411H38.3351V34.6176ZM39.8586 34.6176H41.3822V36.1411H39.8586V34.6176ZM39.8586 33.0941H41.3822V34.6176H39.8586V33.0941ZM39.8586 36.1411H41.3822V37.6647H39.8586V36.1411ZM36.8116 36.1411H38.3351V37.6647H36.8116V36.1411ZM38.3351 33.0941H39.8586V34.6176H38.3351V33.0941ZM36.8116 33.0941H38.3351V34.6176H36.8116V33.0941ZM36.8116 34.6176H38.3351V36.1411H36.8116V34.6176ZM35.2881 33.0941H36.8116V34.6176H35.2881V33.0941ZM35.2881 31.5706H36.8116V33.0941H35.2881V31.5706ZM36.8116 30.047H38.3351V31.5706H36.8116V30.047ZM38.3351 30.047H39.8586V31.5706H38.3351V30.047ZM38.3351 31.5706H39.8586V33.0941H38.3351V31.5706ZM36.8116 31.5706H38.3351V33.0941H36.8116V31.5706ZM35.2881 30.047H36.8116V31.5706H35.2881V30.047ZM35.2881 28.5235H36.8116V30.047H35.2881V28.5235ZM35.2881 27H36.8116V28.5235H35.2881V27ZM36.8116 27H38.3351V28.5235H36.8116V27ZM33.7645 27H35.2881V28.5235H33.7645V27ZM32.241 27H33.7645V28.5235H32.241V27ZM30.7175 27H32.241V28.5235H30.7175V27ZM29.194 27H30.7175V28.5235H29.194V27ZM29.194 28.5235H30.7175V30.047H29.194V28.5235ZM27.6705 28.5235H29.194V30.047H27.6705V28.5235ZM27.6705 27H29.194V28.5235H27.6705V27ZM26.1469 28.5235H27.6705V30.047H26.1469V28.5235ZM24.6234 28.5235H26.1469V30.047H24.6234V28.5235ZM24.6234 30.047H26.1469V31.5706H24.6234V30.047ZM24.6234 31.5706H26.1469V33.0941H24.6234V31.5706ZM23.0999 31.5706H24.6234V33.0941H23.0999V31.5706ZM23.0999 33.0941H24.6234V34.6176H23.0999V33.0941ZM24.6234 33.0941H26.1469V34.6176H24.6234V33.0941ZM26.1469 33.0941H27.6705V34.6176H26.1469V33.0941ZM27.6705 33.0941H29.194V34.6176H27.6705V33.0941ZM29.194 33.0941H30.7175V34.6176H29.194V33.0941ZM29.194 31.5706H30.7175V33.0941H29.194V31.5706ZM30.7175 31.5706H32.241V33.0941H30.7175V31.5706ZM32.241 31.5706H33.7645V33.0941H32.241V31.5706ZM33.7645 31.5706H35.2881V33.0941H33.7645V31.5706ZM33.7645 28.5235H35.2881V30.047H33.7645V28.5235ZM33.7645 30.047H35.2881V31.5706H33.7645V30.047ZM32.241 30.047H33.7645V31.5706H32.241V30.047ZM30.7175 30.047H32.241V31.5706H30.7175V30.047ZM32.241 28.5235H33.7645V30.047H32.241V28.5235ZM30.7175 28.5235H32.241V30.047H30.7175V28.5235ZM29.194 30.047H30.7175V31.5706H29.194V30.047ZM27.6705 30.047H29.194V31.5706H27.6705V30.047ZM27.6705 31.5706H29.194V33.0941H27.6705V31.5706ZM26.1469 31.5706H27.6705V33.0941H26.1469V31.5706ZM26.1469 30.047H27.6705V31.5706H26.1469V30.047ZM26.1469 34.6176H27.6705V36.1411H26.1469V34.6176ZM26.1469 36.1411H27.6705V37.6647H26.1469V36.1411ZM26.1469 37.6647H27.6705V39.1882H26.1469V37.6647ZM26.1469 39.1882H27.6705V40.7117H26.1469V39.1882ZM27.6705 39.1882H29.194V40.7117H27.6705V39.1882ZM27.6705 40.7117H29.194V42.2352H27.6705V40.7117ZM27.6705 37.6647H29.194V39.1882H27.6705V37.6647ZM27.6705 36.1411H29.194V37.6647H27.6705V36.1411ZM27.6705 34.6176H29.194V36.1411H27.6705V34.6176ZM27.6705 42.2352H29.194V43.7588H27.6705V42.2352ZM27.6705 43.7588H29.194V45.2823H27.6705V43.7588ZM26.1469 43.7588H27.6705V45.2823H26.1469V43.7588ZM24.6234 43.7588H26.1469V45.2823H24.6234V43.7588ZM23.0999 42.2352H24.6234V43.7588H23.0999V42.2352ZM23.0999 43.7588H24.6234V45.2823H23.0999V43.7588ZM23.0999 40.7117H24.6234V42.2352H23.0999V40.7117ZM23.0999 39.1882H24.6234V40.7117H23.0999V39.1882ZM23.0999 37.6647H24.6234V39.1882H23.0999V37.6647ZM23.0999 36.1411H24.6234V37.6647H23.0999V36.1411ZM23.0999 34.6176H24.6234V36.1411H23.0999V34.6176ZM24.6234 36.1411H26.1469V37.6647H24.6234V36.1411ZM24.6234 37.6647H26.1469V39.1882H24.6234V37.6647ZM24.6234 39.1882H26.1469V40.7117H24.6234V39.1882ZM24.6234 40.7117H26.1469V42.2352H24.6234V40.7117ZM24.6234 42.2352H26.1469V43.7588H24.6234V42.2352ZM26.1469 42.2352H27.6705V43.7588H26.1469V42.2352ZM26.1469 40.7117H27.6705V42.2352H26.1469V40.7117ZM24.6234 34.6176H26.1469V36.1411H24.6234V34.6176Z" fill="white"/>
<path d="M12.4263 55.9469H13.9498V57.4705H12.4263V55.9469ZM13.9498 55.9469H15.4733V57.4705H13.9498V55.9469ZM15.4733 55.9469H16.9969V57.4705H15.4733V55.9469ZM16.9969 55.9469H18.5204V57.4705H16.9969V55.9469ZM16.9969 54.4234H18.5204V55.9469H16.9969V54.4234ZM15.4733 54.4234H16.9969V55.9469H15.4733V54.4234ZM13.9498 54.4234H15.4733V55.9469H13.9498V54.4234ZM12.4263 54.4234H13.9498V55.9469H12.4263V54.4234ZM12.4263 52.8999H13.9498V54.4234H12.4263V52.8999ZM12.4263 51.3764H13.9498V52.8999H12.4263V51.3764ZM12.4263 49.8529H13.9498V51.3764H12.4263V49.8529ZM12.4263 48.3293H13.9498V49.8529H12.4263V48.3293ZM12.4263 46.8058H13.9498V48.3293H12.4263V46.8058ZM12.4263 45.2823H13.9498V46.8058H12.4263V45.2823ZM12.4263 43.7588H13.9498V45.2823H12.4263V43.7588ZM13.9498 43.7588H15.4733V45.2823H13.9498V43.7588ZM13.9498 42.2352H15.4733V43.7588H13.9498V42.2352ZM13.9498 40.7117H15.4733V42.2352H13.9498V40.7117ZM15.4733 40.7117H16.9969V42.2352H15.4733V40.7117ZM15.4733 42.2352H16.9969V43.7588H15.4733V42.2352ZM16.9969 42.2352H18.5204V43.7588H16.9969V42.2352ZM16.9969 43.7588H18.5204V45.2823H16.9969V43.7588ZM16.9969 45.2823H18.5204V46.8058H16.9969V45.2823ZM16.9969 46.8058H18.5204V48.3293H16.9969V46.8058ZM16.9969 48.3293H18.5204V49.8529H16.9969V48.3293ZM16.9969 49.8529H18.5204V51.3764H16.9969V49.8529ZM16.9969 51.3764H18.5204V52.8999H16.9969V51.3764ZM16.9969 52.8999H18.5204V54.4234H16.9969V52.8999ZM15.4733 52.8999H16.9969V54.4234H15.4733V52.8999ZM15.4733 51.3764H16.9969V52.8999H15.4733V51.3764ZM15.4733 49.8529H16.9969V51.3764H15.4733V49.8529ZM15.4733 48.3293H16.9969V49.8529H15.4733V48.3293ZM15.4733 46.8058H16.9969V48.3293H15.4733V46.8058ZM15.4733 45.2823H16.9969V46.8058H15.4733V45.2823ZM15.4733 43.7588H16.9969V45.2823H15.4733V43.7588ZM13.9498 45.2823H15.4733V46.8058H13.9498V45.2823ZM13.9498 46.8058H15.4733V48.3293H13.9498V46.8058ZM13.9498 48.3293H15.4733V49.8529H13.9498V48.3293ZM13.9498 49.8529H15.4733V51.3764H13.9498V49.8529ZM13.9498 51.3764H15.4733V52.8999H13.9498V51.3764ZM13.9498 52.8999H15.4733V54.4234H13.9498V52.8999ZM12.4263 27H13.9498V28.5235H12.4263V27ZM12.4263 28.5235H13.9498V30.047H12.4263V28.5235ZM12.4263 31.5706H13.9498V33.0941H12.4263V31.5706ZM12.4263 33.0941H13.9498V34.6176H12.4263V33.0941ZM12.4263 34.6176H13.9498V36.1411H12.4263V34.6176ZM12.4263 36.1411H13.9498V37.6647H12.4263V36.1411ZM12.4263 37.6647H13.9498V39.1882H12.4263V37.6647ZM12.4263 39.1882H13.9498V40.7117H12.4263V39.1882ZM12.4263 40.7117H13.9498V42.2352H12.4263V40.7117ZM12.4263 42.2352H13.9498V43.7588H12.4263V42.2352ZM13.9498 36.1411H15.4733V37.6647H13.9498V36.1411ZM13.9498 34.6176H15.4733V36.1411H13.9498V34.6176ZM13.9498 33.0941H15.4733V34.6176H13.9498V33.0941ZM13.9498 31.5706H15.4733V33.0941H13.9498V31.5706ZM13.9498 30.047H15.4733V31.5706H13.9498V30.047ZM12.4263 30.047H13.9498V31.5706H12.4263V30.047ZM13.9498 27H15.4733V28.5235H13.9498V27ZM15.4733 27H16.9969V28.5235H15.4733V27ZM15.4733 28.5235H16.9969V30.047H15.4733V28.5235ZM16.9969 30.047H18.5204V31.5706H16.9969V30.047ZM16.9969 28.5235H18.5204V30.047H16.9969V28.5235ZM16.9969 27H18.5204V28.5235H16.9969V27ZM16.9969 31.5706H18.5204V33.0941H16.9969V31.5706ZM16.9969 33.0941H18.5204V34.6176H16.9969V33.0941ZM16.9969 34.6176H18.5204V36.1411H16.9969V34.6176ZM16.9969 36.1411H18.5204V37.6647H16.9969V36.1411ZM16.9969 37.6647H18.5204V39.1882H16.9969V37.6647ZM16.9969 39.1882H18.5204V40.7117H16.9969V39.1882ZM16.9969 40.7117H18.5204V42.2352H16.9969V40.7117ZM15.4733 39.1882H16.9969V40.7117H15.4733V39.1882ZM15.4733 37.6647H16.9969V39.1882H15.4733V37.6647ZM15.4733 36.1411H16.9969V37.6647H15.4733V36.1411ZM13.9498 37.6647H15.4733V39.1882H13.9498V37.6647ZM13.9498 39.1882H15.4733V40.7117H13.9498V39.1882ZM15.4733 34.6176H16.9969V36.1411H15.4733V34.6176ZM15.4733 30.047H16.9969V31.5706H15.4733V30.047ZM15.4733 31.5706H16.9969V33.0941H15.4733V31.5706ZM15.4733 33.0941H16.9969V34.6176H15.4733V33.0941ZM13.9498 28.5235H15.4733V30.047H13.9498V28.5235Z" fill="white"/>
</g>
<defs>
<linearGradient id="paint0_linear_1472_3" x1="3" y1="16" x2="240" y2="196" gradientUnits="userSpaceOnUse">
<stop/>
<stop offset="1" stop-color="#222222"/>
</linearGradient>
<clipPath id="clip0_1472_3">
<rect width="128" height="128" fill="white"/>
</clipPath>
</defs>
</svg>
